<svg width="31" height="31" viewBox="0 0 31 31" fill="none" xmlns="http://www.w3.org/2000/svg">
<path d="M20.2256 2.27344C24.6283 2.50155 28.0859 6.22194 28.0859 10.8359V14.6465L28.0752 15.0898C27.862 19.4967 24.4864 22.9882 20.2256 23.209L19.7969 23.2197H15.4678L15.0703 23.2246C10.9725 23.3225 6.98507 24.9313 3.8623 27.792C3.6781 27.8872 3.40192 27.9824 3.21777 27.9824C3.12569 27.9824 2.94173 27.9827 2.84961 27.8877C2.5274 27.7211 2.34607 27.4813 2.30566 27.1689L2.29688 27.0303V10.8359C2.29692 6.07308 5.98092 2.2628 10.5859 2.2627H19.7969L20.2256 2.27344ZM10.5859 4.2627C7.14847 4.2628 4.29692 7.1136 4.29688 10.8359V24.8633C7.56978 22.5024 11.4752 21.2197 15.4678 21.2197H19.7969C23.2342 21.2195 26.0859 18.3687 26.0859 14.6465V10.8359C26.0859 7.1137 23.2342 4.26296 19.7969 4.2627H10.5859ZM10.751 11.2139C11.5748 11.2139 12.2421 11.8813 12.2422 12.7051C12.2422 13.5289 11.5748 14.1972 10.751 14.1973C9.92708 14.1973 9.25879 13.529 9.25879 12.7051C9.25886 11.8812 9.92712 11.2139 10.751 11.2139ZM15.7227 11.2139C16.5465 11.2139 17.2148 11.8812 17.2148 12.7051C17.2148 13.529 16.5466 14.1973 15.7227 14.1973C14.8989 14.1971 14.2314 13.5289 14.2314 12.7051C14.2315 11.8813 14.8989 11.214 15.7227 11.2139ZM20.6963 11.2139C21.5201 11.214 22.1874 11.8813 22.1875 12.7051C22.1875 13.5289 21.5201 14.1972 20.6963 14.1973C19.8724 14.1973 19.2041 13.529 19.2041 12.7051C19.2042 11.8812 19.8724 11.2139 20.6963 11.2139Z" fill="#868686"/>
</svg>
