<svg width="31" height="30" viewBox="0 0 31 30" fill="none" xmlns="http://www.w3.org/2000/svg">
<path d="M20.4111 0C25.7826 0 30.0801 4.44444 30.0801 10V14.4443C30.0801 19.9999 25.7826 24.4443 20.4111 24.4443H15.3623C10.4207 24.4444 5.58616 26.333 1.82617 29.7773C1.61131 29.8885 1.28908 30 1.07422 30C0.966765 30 0.751936 29.9998 0.644531 29.8887C0.214896 29.6665 0 29.3331 0 28.8887V10C0 4.61817 4.03261 0.278808 9.16797 0.0126953L9.66895 0H20.4111ZM9.66895 1.5C5.17315 1.5 1.5 5.22483 1.5 10V28.0684C5.42502 24.7585 10.3351 22.9444 15.3623 22.9443H20.4111C24.9069 22.9443 28.5801 19.2195 28.5801 14.4443V10C28.5801 5.22483 24.9069 1.5 20.4111 1.5H9.66895ZM11.0293 10.5879C11.7603 10.5879 12.3525 11.1811 12.3525 11.9121C12.3524 12.6429 11.7601 13.2354 11.0293 13.2354C10.2985 13.2353 9.70624 12.6429 9.70605 11.9121C9.70605 11.1812 10.2984 10.588 11.0293 10.5879ZM15.4414 10.5879C16.1723 10.588 16.7646 11.1812 16.7646 11.9121C16.7645 12.6428 16.1721 13.2352 15.4414 13.2354C14.7106 13.2354 14.1174 12.6429 14.1172 11.9121C14.1172 11.1811 14.7104 10.5879 15.4414 10.5879ZM19.8525 10.5879C20.5835 10.5879 21.1768 11.1811 21.1768 11.9121C21.1766 12.6429 20.5834 13.2354 19.8525 13.2354C19.1219 13.2351 18.5295 12.6428 18.5293 11.9121C18.5293 11.1813 19.1218 10.5881 19.8525 10.5879Z" fill="black"/>
</svg>
