<?xml version="1.0" standalone="no"?>
  <!DOCTYPE svg PUBLIC "-//W3C//DTD SVG 1.1//EN" "http://www.w3.org/Graphics/SVG/1.1/DTD/svg11.dtd" >
  <svg>
  <metadata>
  Created by font-carrier
  </metadata>
  <defs>
  <font id="PlayfairDisplay-Medium" horiz-adv-x="1226" vert-adv-y="1226" >
    <font-face
      
      font-family="Playfair Display Medium"
      
      font-weight="400"
      
      font-stretch="normal"
      
      units-per-em="1000"
      
      ascent="1082"
      
      descent="-251"
      
    />
      <missing-glyph />

      

      
      <glyph glyph-name="uni41" unicode="&#x41;" d="M338 712L582 84Q596 47 614.50 34Q633 21 649 20L649 0Q625 2 592.50 2.50Q560 3 527 3Q485 3 449 2.50Q413 2 391 0L391 20Q442 22 455.50 37.50Q469 53 449 104L269 590L285 608L119 174Q95 114 96 81Q97 48 119.50 34.50Q142 21 184 20L184 0Q154 2 123.50 2.50Q93 3 66 3Q42 3 23.50 2.50Q5 2-10 0L-10 20Q11 25 32 45Q53 65 72 113L304 712Q312 712 321 712Q330 712 338 712M443 288L443 268L145 268L155 288L443 288Z"  horiz-adv-x="642" vert-adv-y="1000"  />

      
      <glyph glyph-name="unic1" unicode="&#xc1;" d="M338 712L582 84Q596 47 614.50 34Q633 21 649 20L649 0Q625 2 592.50 2.50Q560 3 527 3Q485 3 449 2.50Q413 2 391 0L391 20Q442 22 455.50 37.50Q469 53 449 104L269 590L285 608L119 174Q95 114 96 81Q97 48 119.50 34.50Q142 21 184 20L184 0Q154 2 123.50 2.50Q93 3 66 3Q42 3 23.50 2.50Q5 2-10 0L-10 20Q11 25 32 45Q53 65 72 113L304 712Q312 712 321 712Q330 712 338 712M443 288L443 268L145 268L155 288L443 288M421 929Q441 941 460.50 937Q480 933 489 917Q497 902 492 884.50Q487 867 465 853Q444 841 416.50 831.50Q389 822 352 809Q315 796 262 772L255 785Q302 821 330.50 848.50Q359 876 379 896Q399 916 421 929Z"  horiz-adv-x="642" vert-adv-y="1000"  />

      
      <glyph glyph-name="uni0102" unicode="&#x0102;" d="M338 712L582 84Q596 47 614.50 34Q633 21 649 20L649 0Q625 2 592.50 2.50Q560 3 527 3Q485 3 449 2.50Q413 2 391 0L391 20Q442 22 455.50 37.50Q469 53 449 104L269 590L285 608L119 174Q95 114 96 81Q97 48 119.50 34.50Q142 21 184 20L184 0Q154 2 123.50 2.50Q93 3 66 3Q42 3 23.50 2.50Q5 2-10 0L-10 20Q11 25 32 45Q53 65 72 113L304 712Q312 712 321 712Q330 712 338 712M443 288L443 268L145 268L155 288L443 288M513 911L525 900Q510 873 482 844.50Q454 816 413 797Q372 778 318 778Q264 778 223 797Q182 816 154 844.50Q126 873 111 900L124 910Q148 889 195.50 868.50Q243 848 318 848Q393 848 441 869Q489 890 513 911Z"  horiz-adv-x="642" vert-adv-y="1000"  />

      
      <glyph glyph-name="uni1EAE" unicode="&#x1EAE;" d="M338 712L582 84Q596 47 614.50 34Q633 21 649 20L649 0Q625 2 592.50 2.50Q560 3 527 3Q485 3 449 2.50Q413 2 391 0L391 20Q442 22 455.50 37.50Q469 53 449 104L269 590L285 608L119 174Q95 114 96 81Q97 48 119.50 34.50Q142 21 184 20L184 0Q154 2 123.50 2.50Q93 3 66 3Q42 3 23.50 2.50Q5 2-10 0L-10 20Q11 25 32 45Q53 65 72 113L304 712Q312 712 321 712Q330 712 338 712M443 288L443 268L145 268L155 288L443 288M513 911L525 900Q510 873 482 844.50Q454 816 413 797Q372 778 318 778Q264 778 223 797Q182 816 154 844.50Q126 873 111 900L124 910Q148 889 195.50 868.50Q243 848 318 848Q393 848 441 869Q489 890 513 911M421 1079Q441 1091 460.50 1087Q480 1083 489 1067Q497 1052 492 1034.50Q487 1017 465 1003Q444 991 416.50 981.50Q389 972 352 959Q315 946 262 922L255 935Q302 971 330.50 998.50Q359 1026 379 1046Q399 1066 421 1079Z"  horiz-adv-x="642" vert-adv-y="1000"  />

      
      <glyph glyph-name="uni1EB6" unicode="&#x1EB6;" d="M338 712L582 84Q596 47 614.50 34Q633 21 649 20L649 0Q625 2 592.50 2.50Q560 3 527 3Q485 3 449 2.50Q413 2 391 0L391 20Q442 22 455.50 37.50Q469 53 449 104L269 590L285 608L119 174Q95 114 96 81Q97 48 119.50 34.50Q142 21 184 20L184 0Q154 2 123.50 2.50Q93 3 66 3Q42 3 23.50 2.50Q5 2-10 0L-10 20Q11 25 32 45Q53 65 72 113L304 712Q312 712 321 712Q330 712 338 712M443 288L443 268L145 268L155 288L443 288M513 911L525 900Q510 873 482 844.50Q454 816 413 797Q372 778 318 778Q264 778 223 797Q182 816 154 844.50Q126 873 111 900L124 910Q148 889 195.50 868.50Q243 848 318 848Q393 848 441 869Q489 890 513 911M321-183Q294-183 275.50-167Q257-151 257-124Q257-98 274-81Q291-64 321-64Q351-64 368-81.50Q385-99 385-124Q385-151 366.50-167Q348-183 321-183Z"  horiz-adv-x="642" vert-adv-y="1000"  />

      
      <glyph glyph-name="uni1EB0" unicode="&#x1EB0;" d="M338 712L582 84Q596 47 614.50 34Q633 21 649 20L649 0Q625 2 592.50 2.50Q560 3 527 3Q485 3 449 2.50Q413 2 391 0L391 20Q442 22 455.50 37.50Q469 53 449 104L269 590L285 608L119 174Q95 114 96 81Q97 48 119.50 34.50Q142 21 184 20L184 0Q154 2 123.50 2.50Q93 3 66 3Q42 3 23.50 2.50Q5 2-10 0L-10 20Q11 25 32 45Q53 65 72 113L304 712Q312 712 321 712Q330 712 338 712M443 288L443 268L145 268L155 288L443 288M513 911L525 900Q510 873 482 844.50Q454 816 413 797Q372 778 318 778Q264 778 223 797Q182 816 154 844.50Q126 873 111 900L124 910Q148 889 195.50 868.50Q243 848 318 848Q393 848 441 869Q489 890 513 911M221 1079Q243 1066 263 1046Q283 1026 312 998.50Q341 971 387 935L380 922Q328 946 290 959Q252 972 225.50 981.50Q199 991 177 1003Q155 1017 150 1034.50Q145 1052 153 1067Q163 1083 182 1087Q201 1091 221 1079Z"  horiz-adv-x="642" vert-adv-y="1000"  />

      
      <glyph glyph-name="uni1EB2" unicode="&#x1EB2;" d="M338 712L582 84Q596 47 614.50 34Q633 21 649 20L649 0Q625 2 592.50 2.50Q560 3 527 3Q485 3 449 2.50Q413 2 391 0L391 20Q442 22 455.50 37.50Q469 53 449 104L269 590L285 608L119 174Q95 114 96 81Q97 48 119.50 34.50Q142 21 184 20L184 0Q154 2 123.50 2.50Q93 3 66 3Q42 3 23.50 2.50Q5 2-10 0L-10 20Q11 25 32 45Q53 65 72 113L304 712Q312 712 321 712Q330 712 338 712M443 288L443 268L145 268L155 288L443 288M513 911L525 900Q510 873 482 844.50Q454 816 413 797Q372 778 318 778Q264 778 223 797Q182 816 154 844.50Q126 873 111 900L124 910Q148 889 195.50 868.50Q243 848 318 848Q393 848 441 869Q489 890 513 911M308 915L308 970Q344 984 359 1003.50Q374 1023 374 1046Q374 1075 353 1090Q332 1105 302 1105Q289 1105 275.50 1101.50Q262 1098 255 1090Q290 1081 290 1045Q290 1023 276.50 1010.50Q263 998 242 998Q222 998 209 1010.50Q196 1023 196 1044Q196 1064 208 1079Q220 1094 235 1104Q251 1113 271.50 1119Q292 1125 324 1125Q355 1125 384 1117.50Q413 1110 432 1094Q451 1078 451 1051Q451 1018 417 994.50Q383 971 328 961L328 915L308 915Z"  horiz-adv-x="642" vert-adv-y="1000"  />

      
      <glyph glyph-name="uni1EB4" unicode="&#x1EB4;" d="M338 712L582 84Q596 47 614.50 34Q633 21 649 20L649 0Q625 2 592.50 2.50Q560 3 527 3Q485 3 449 2.50Q413 2 391 0L391 20Q442 22 455.50 37.50Q469 53 449 104L269 590L285 608L119 174Q95 114 96 81Q97 48 119.50 34.50Q142 21 184 20L184 0Q154 2 123.50 2.50Q93 3 66 3Q42 3 23.50 2.50Q5 2-10 0L-10 20Q11 25 32 45Q53 65 72 113L304 712Q312 712 321 712Q330 712 338 712M443 288L443 268L145 268L155 288L443 288M513 911L525 900Q510 873 482 844.50Q454 816 413 797Q372 778 318 778Q264 778 223 797Q182 816 154 844.50Q126 873 111 900L124 910Q148 889 195.50 868.50Q243 848 318 848Q393 848 441 869Q489 890 513 911M237 1059Q267 1059 292 1048Q317 1037 339.50 1022Q362 1007 385.50 995.50Q409 984 436 984Q457 984 475 996.50Q493 1009 505 1040L520 1036Q513 980 478.50 950.50Q444 921 401 921Q371 921 346 932Q321 943 298 958Q275 973 252 984.50Q229 996 202 996Q180 996 162 983.50Q144 971 133 940L118 944Q126 1000 160 1029.50Q194 1059 237 1059Z"  horiz-adv-x="642" vert-adv-y="1000"  />

      
      <glyph glyph-name="uni01CD" unicode="&#x01CD;" d="M338 712L582 84Q596 47 614.50 34Q633 21 649 20L649 0Q625 2 592.50 2.50Q560 3 527 3Q485 3 449 2.50Q413 2 391 0L391 20Q442 22 455.50 37.50Q469 53 449 104L269 590L285 608L119 174Q95 114 96 81Q97 48 119.50 34.50Q142 21 184 20L184 0Q154 2 123.50 2.50Q93 3 66 3Q42 3 23.50 2.50Q5 2-10 0L-10 20Q11 25 32 45Q53 65 72 113L304 712Q312 712 321 712Q330 712 338 712M443 288L443 268L145 268L155 288L443 288M514 930L519 916Q454 892 403 854Q352 816 326 776L308 776Q283 816 231.50 854Q180 892 115 916L120 930Q182 918 242 899Q302 880 337 862Q367 880 415.50 899Q464 918 514 930Z"  horiz-adv-x="642" vert-adv-y="1000"  />

      
      <glyph glyph-name="unic2" unicode="&#xc2;" d="M338 712L582 84Q596 47 614.50 34Q633 21 649 20L649 0Q625 2 592.50 2.50Q560 3 527 3Q485 3 449 2.50Q413 2 391 0L391 20Q442 22 455.50 37.50Q469 53 449 104L269 590L285 608L119 174Q95 114 96 81Q97 48 119.50 34.50Q142 21 184 20L184 0Q154 2 123.50 2.50Q93 3 66 3Q42 3 23.50 2.50Q5 2-10 0L-10 20Q11 25 32 45Q53 65 72 113L304 712Q312 712 321 712Q330 712 338 712M443 288L443 268L145 268L155 288L443 288M329 924Q354 884 405.50 846.50Q457 809 522 784L517 770Q455 782 395.50 801Q336 820 300 838Q271 820 222 801Q173 782 123 770L118 784Q183 809 234 846.50Q285 884 311 924L329 924Z"  horiz-adv-x="642" vert-adv-y="1000"  />

      
      <glyph glyph-name="uni1EA4" unicode="&#x1EA4;" d="M338 712L582 84Q596 47 614.50 34Q633 21 649 20L649 0Q625 2 592.50 2.50Q560 3 527 3Q485 3 449 2.50Q413 2 391 0L391 20Q442 22 455.50 37.50Q469 53 449 104L269 590L285 608L119 174Q95 114 96 81Q97 48 119.50 34.50Q142 21 184 20L184 0Q154 2 123.50 2.50Q93 3 66 3Q42 3 23.50 2.50Q5 2-10 0L-10 20Q11 25 32 45Q53 65 72 113L304 712Q312 712 321 712Q330 712 338 712M443 288L443 268L145 268L155 288L443 288M329 924Q354 884 405.50 846.50Q457 809 522 784L517 770Q455 782 395.50 801Q336 820 300 838Q271 820 222 801Q173 782 123 770L118 784Q183 809 234 846.50Q285 884 311 924L329 924M421 1149Q441 1161 460.50 1157Q480 1153 489 1137Q497 1122 492 1104.50Q487 1087 465 1073Q444 1061 416.50 1051.50Q389 1042 352 1029Q315 1016 262 992L255 1005Q302 1041 330.50 1068.50Q359 1096 379 1116Q399 1136 421 1149Z"  horiz-adv-x="642" vert-adv-y="1000"  />

      
      <glyph glyph-name="uni1EAC" unicode="&#x1EAC;" d="M338 712L582 84Q596 47 614.50 34Q633 21 649 20L649 0Q625 2 592.50 2.50Q560 3 527 3Q485 3 449 2.50Q413 2 391 0L391 20Q442 22 455.50 37.50Q469 53 449 104L269 590L285 608L119 174Q95 114 96 81Q97 48 119.50 34.50Q142 21 184 20L184 0Q154 2 123.50 2.50Q93 3 66 3Q42 3 23.50 2.50Q5 2-10 0L-10 20Q11 25 32 45Q53 65 72 113L304 712Q312 712 321 712Q330 712 338 712M443 288L443 268L145 268L155 288L443 288M329 924Q354 884 405.50 846.50Q457 809 522 784L517 770Q455 782 395.50 801Q336 820 300 838Q271 820 222 801Q173 782 123 770L118 784Q183 809 234 846.50Q285 884 311 924L329 924M321-183Q294-183 275.50-167Q257-151 257-124Q257-98 274-81Q291-64 321-64Q351-64 368-81.50Q385-99 385-124Q385-151 366.50-167Q348-183 321-183Z"  horiz-adv-x="642" vert-adv-y="1000"  />

      
      <glyph glyph-name="uni1EA6" unicode="&#x1EA6;" d="M338 712L582 84Q596 47 614.50 34Q633 21 649 20L649 0Q625 2 592.50 2.50Q560 3 527 3Q485 3 449 2.50Q413 2 391 0L391 20Q442 22 455.50 37.50Q469 53 449 104L269 590L285 608L119 174Q95 114 96 81Q97 48 119.50 34.50Q142 21 184 20L184 0Q154 2 123.50 2.50Q93 3 66 3Q42 3 23.50 2.50Q5 2-10 0L-10 20Q11 25 32 45Q53 65 72 113L304 712Q312 712 321 712Q330 712 338 712M443 288L443 268L145 268L155 288L443 288M329 924Q354 884 405.50 846.50Q457 809 522 784L517 770Q455 782 395.50 801Q336 820 300 838Q271 820 222 801Q173 782 123 770L118 784Q183 809 234 846.50Q285 884 311 924L329 924M221 1149Q243 1136 263 1116Q283 1096 312 1068.50Q341 1041 387 1005L380 992Q328 1016 290 1029Q252 1042 225.50 1051.50Q199 1061 177 1073Q155 1087 150 1104.50Q145 1122 153 1137Q163 1153 182 1157Q201 1161 221 1149Z"  horiz-adv-x="642" vert-adv-y="1000"  />

      
      <glyph glyph-name="uni1EA8" unicode="&#x1EA8;" d="M338 712L582 84Q596 47 614.50 34Q633 21 649 20L649 0Q625 2 592.50 2.50Q560 3 527 3Q485 3 449 2.50Q413 2 391 0L391 20Q442 22 455.50 37.50Q469 53 449 104L269 590L285 608L119 174Q95 114 96 81Q97 48 119.50 34.50Q142 21 184 20L184 0Q154 2 123.50 2.50Q93 3 66 3Q42 3 23.50 2.50Q5 2-10 0L-10 20Q11 25 32 45Q53 65 72 113L304 712Q312 712 321 712Q330 712 338 712M443 288L443 268L145 268L155 288L443 288M329 924Q354 884 405.50 846.50Q457 809 522 784L517 770Q455 782 395.50 801Q336 820 300 838Q271 820 222 801Q173 782 123 770L118 784Q183 809 234 846.50Q285 884 311 924L329 924M475 917L475 972Q511 986 526 1005.50Q541 1025 541 1048Q541 1077 520 1092Q499 1107 469 1107Q456 1107 442.50 1103.50Q429 1100 422 1092Q457 1083 457 1047Q457 1025 443.50 1012.50Q430 1000 409 1000Q389 1000 376 1012.50Q363 1025 363 1046Q363 1066 375 1081Q387 1096 402 1106Q418 1115 438.50 1121Q459 1127 491 1127Q522 1127 551 1119.50Q580 1112 599 1096Q618 1080 618 1053Q618 1020 584 996.50Q550 973 495 963L495 917L475 917Z"  horiz-adv-x="642" vert-adv-y="1000"  />

      
      <glyph glyph-name="uni1EAA" unicode="&#x1EAA;" d="M338 712L582 84Q596 47 614.50 34Q633 21 649 20L649 0Q625 2 592.50 2.50Q560 3 527 3Q485 3 449 2.50Q413 2 391 0L391 20Q442 22 455.50 37.50Q469 53 449 104L269 590L285 608L119 174Q95 114 96 81Q97 48 119.50 34.50Q142 21 184 20L184 0Q154 2 123.50 2.50Q93 3 66 3Q42 3 23.50 2.50Q5 2-10 0L-10 20Q11 25 32 45Q53 65 72 113L304 712Q312 712 321 712Q330 712 338 712M443 288L443 268L145 268L155 288L443 288M329 924Q354 884 405.50 846.50Q457 809 522 784L517 770Q455 782 395.50 801Q336 820 300 838Q271 820 222 801Q173 782 123 770L118 784Q183 809 234 846.50Q285 884 311 924L329 924M237 1129Q267 1129 292 1118Q317 1107 339.50 1092Q362 1077 385.50 1065.50Q409 1054 436 1054Q457 1054 475 1066.50Q493 1079 505 1110L520 1106Q513 1050 478.50 1020.50Q444 991 401 991Q371 991 346 1002Q321 1013 298 1028Q275 1043 252 1054.50Q229 1066 202 1066Q180 1066 162 1053.50Q144 1041 133 1010L118 1014Q126 1070 160 1099.50Q194 1129 237 1129Z"  horiz-adv-x="642" vert-adv-y="1000"  />

      
      <glyph glyph-name="unic4" unicode="&#xc4;" d="M338 712L582 84Q596 47 614.50 34Q633 21 649 20L649 0Q625 2 592.50 2.50Q560 3 527 3Q485 3 449 2.50Q413 2 391 0L391 20Q442 22 455.50 37.50Q469 53 449 104L269 590L285 608L119 174Q95 114 96 81Q97 48 119.50 34.50Q142 21 184 20L184 0Q154 2 123.50 2.50Q93 3 66 3Q42 3 23.50 2.50Q5 2-10 0L-10 20Q11 25 32 45Q53 65 72 113L304 712Q312 712 321 712Q330 712 338 712M443 288L443 268L145 268L155 288L443 288M431 898Q456 898 475 878.50Q494 859 494 834Q494 807 475 788.50Q456 770 431 770Q404 770 385.50 788.50Q367 807 367 834Q367 859 385.50 878.50Q404 898 431 898M209 898Q235 898 254 878.50Q273 859 273 834Q273 807 254 788.50Q235 770 209 770Q183 770 164.50 788.50Q146 807 146 834Q146 859 164.50 878.50Q183 898 209 898Z"  horiz-adv-x="642" vert-adv-y="1000"  />

      
      <glyph glyph-name="uni1EA0" unicode="&#x1EA0;" d="M338 712L582 84Q596 47 614.50 34Q633 21 649 20L649 0Q625 2 592.50 2.50Q560 3 527 3Q485 3 449 2.50Q413 2 391 0L391 20Q442 22 455.50 37.50Q469 53 449 104L269 590L285 608L119 174Q95 114 96 81Q97 48 119.50 34.50Q142 21 184 20L184 0Q154 2 123.50 2.50Q93 3 66 3Q42 3 23.50 2.50Q5 2-10 0L-10 20Q11 25 32 45Q53 65 72 113L304 712Q312 712 321 712Q330 712 338 712M443 288L443 268L145 268L155 288L443 288M321-183Q294-183 275.50-167Q257-151 257-124Q257-98 274-81Q291-64 321-64Q351-64 368-81.50Q385-99 385-124Q385-151 366.50-167Q348-183 321-183Z"  horiz-adv-x="642" vert-adv-y="1000"  />

      
      <glyph glyph-name="unic0" unicode="&#xc0;" d="M338 712L582 84Q596 47 614.50 34Q633 21 649 20L649 0Q625 2 592.50 2.50Q560 3 527 3Q485 3 449 2.50Q413 2 391 0L391 20Q442 22 455.50 37.50Q469 53 449 104L269 590L285 608L119 174Q95 114 96 81Q97 48 119.50 34.50Q142 21 184 20L184 0Q154 2 123.50 2.50Q93 3 66 3Q42 3 23.50 2.50Q5 2-10 0L-10 20Q11 25 32 45Q53 65 72 113L304 712Q312 712 321 712Q330 712 338 712M443 288L443 268L145 268L155 288L443 288M221 929Q243 916 263 896Q283 876 312 848.50Q341 821 387 785L380 772Q328 796 290 809Q252 822 225.50 831.50Q199 841 177 853Q155 867 150 884.50Q145 902 153 917Q163 933 182 937Q201 941 221 929Z"  horiz-adv-x="642" vert-adv-y="1000"  />

      
      <glyph glyph-name="uni1EA2" unicode="&#x1EA2;" d="M338 712L582 84Q596 47 614.50 34Q633 21 649 20L649 0Q625 2 592.50 2.50Q560 3 527 3Q485 3 449 2.50Q413 2 391 0L391 20Q442 22 455.50 37.50Q469 53 449 104L269 590L285 608L119 174Q95 114 96 81Q97 48 119.50 34.50Q142 21 184 20L184 0Q154 2 123.50 2.50Q93 3 66 3Q42 3 23.50 2.50Q5 2-10 0L-10 20Q11 25 32 45Q53 65 72 113L304 712Q312 712 321 712Q330 712 338 712M443 288L443 268L145 268L155 288L443 288M308 765L308 820Q344 834 359 853.50Q374 873 374 896Q374 925 353 940Q332 955 302 955Q289 955 275.50 951.50Q262 948 255 940Q290 931 290 895Q290 873 276.50 860.50Q263 848 242 848Q222 848 209 860.50Q196 873 196 894Q196 914 208 929Q220 944 235 954Q251 963 271.50 969Q292 975 324 975Q355 975 384 967.50Q413 960 432 944Q451 928 451 901Q451 868 417 844.50Q383 821 328 811L328 765L308 765Z"  horiz-adv-x="642" vert-adv-y="1000"  />

      
      <glyph glyph-name="uni0100" unicode="&#x0100;" d="M338 712L582 84Q596 47 614.50 34Q633 21 649 20L649 0Q625 2 592.50 2.50Q560 3 527 3Q485 3 449 2.50Q413 2 391 0L391 20Q442 22 455.50 37.50Q469 53 449 104L269 590L285 608L119 174Q95 114 96 81Q97 48 119.50 34.50Q142 21 184 20L184 0Q154 2 123.50 2.50Q93 3 66 3Q42 3 23.50 2.50Q5 2-10 0L-10 20Q11 25 32 45Q53 65 72 113L304 712Q312 712 321 712Q330 712 338 712M443 288L443 268L145 268L155 288L443 288M504 844L504 819L136 819L136 844L504 844Z"  horiz-adv-x="642" vert-adv-y="1000"  />

      
      <glyph glyph-name="uni0104" unicode="&#x0104;" d="M338 712L582 84Q596 47 614.50 34Q633 21 649 20L649 0Q625 2 592.50 2.50Q560 3 527 3Q485 3 449 2.50Q413 2 391 0L391 20Q442 22 455.50 37.50Q469 53 449 104L269 590L285 608L119 174Q95 114 96 81Q97 48 119.50 34.50Q142 21 184 20L184 0Q154 2 123.50 2.50Q93 3 66 3Q42 3 23.50 2.50Q5 2-10 0L-10 20Q11 25 32 45Q53 65 72 113L304 712Q312 712 321 712Q330 712 338 712M443 288L443 268L145 268L155 288L443 288M637 3Q577-14 554.50-42Q532-70 532-95Q532-114 543-126Q554-138 574-138Q593-138 609.50-128.50Q626-119 636-107L651-120Q627-155 597-171.50Q567-188 530-188Q491-188 469-170Q447-152 447-122Q447-82 487-50Q527-18 599 3L637 3Z"  horiz-adv-x="642" vert-adv-y="1000"  />

      
      <glyph glyph-name="unic5" unicode="&#xc5;" d="M338 712L582 84Q596 47 614.50 34Q633 21 649 20L649 0Q625 2 592.50 2.50Q560 3 527 3Q485 3 449 2.50Q413 2 391 0L391 20Q442 22 455.50 37.50Q469 53 449 104L269 590L285 608L119 174Q95 114 96 81Q97 48 119.50 34.50Q142 21 184 20L184 0Q154 2 123.50 2.50Q93 3 66 3Q42 3 23.50 2.50Q5 2-10 0L-10 20Q11 25 32 45Q53 65 72 113L304 712Q312 712 321 712Q330 712 338 712M443 288L443 268L145 268L155 288L443 288M320 929Q361 929 391 904Q421 879 421 836Q421 792 391 767Q361 742 320 742Q280 742 250 767Q220 792 220 836Q220 879 250 904Q280 929 320 929M320 908Q295 908 271.50 889.50Q248 871 248 835Q248 799 271.50 781Q295 763 320 763Q346 763 369.50 781Q393 799 393 835Q393 871 369.50 889.50Q346 908 320 908Z"  horiz-adv-x="642" vert-adv-y="1000"  />

      
      <glyph glyph-name="unic3" unicode="&#xc3;" d="M338 712L582 84Q596 47 614.50 34Q633 21 649 20L649 0Q625 2 592.50 2.50Q560 3 527 3Q485 3 449 2.50Q413 2 391 0L391 20Q442 22 455.50 37.50Q469 53 449 104L269 590L285 608L119 174Q95 114 96 81Q97 48 119.50 34.50Q142 21 184 20L184 0Q154 2 123.50 2.50Q93 3 66 3Q42 3 23.50 2.50Q5 2-10 0L-10 20Q11 25 32 45Q53 65 72 113L304 712Q312 712 321 712Q330 712 338 712M443 288L443 268L145 268L155 288L443 288M237 909Q267 909 292 898Q317 887 339.50 872Q362 857 385.50 845.50Q409 834 436 834Q457 834 475 846.50Q493 859 505 890L520 886Q513 830 478.50 800.50Q444 771 401 771Q371 771 346 782Q321 793 298 808Q275 823 252 834.50Q229 846 202 846Q180 846 162 833.50Q144 821 133 790L118 794Q126 850 160 879.50Q194 909 237 909Z"  horiz-adv-x="642" vert-adv-y="1000"  />

      
      <glyph glyph-name="unic6" unicode="&#xc6;" d="M495 772L96 104Q68 58 82 40Q96 22 147 20L147 0Q132 2 107.50 2.50Q83 3 56 3Q38 3 19.50 2.50Q1 2-11 0L-11 20Q5 21 21 35Q37 49 58 84L471 772L495 772M799 708Q795 671 793.50 636.50Q792 602 792 584Q792 565 793 548Q794 531 795 520L772 520Q766 582 754.50 618.50Q743 655 721 670Q699 685 660 685L607 685Q574 685 556.50 679.50Q539 674 533.50 656.50Q528 639 528 602L528 106Q528 70 533.50 52Q539 34 556.50 28.50Q574 23 607 23L672 23Q716 23 739.50 40.50Q763 58 774.50 98.50Q786 139 792 208L815 208Q812 179 812 132Q812 112 813 75.50Q814 39 819 0Q772 2 712 2.50Q652 3 606 3Q579 3 535.50 3Q492 3 443 2.50Q394 2 350 0L350 20Q377 22 390 28Q403 34 408 52Q413 70 413 106L413 602Q413 639 407 656.50Q401 674 384 680.50Q367 687 334 688L334 708Q380 707 432.50 706Q485 705 531 705Q577 705 606 705Q648 705 702 705.50Q756 706 799 708M446 366L446 346L228 346L238 366L446 366M666 366Q666 366 666 356Q666 346 666 346L498 346Q498 346 498 356Q498 366 498 366L666 366M695 480Q691 430 691.50 404Q692 378 692 356Q692 334 693 308.50Q694 283 698 232L675 232Q671 260 665.50 286Q660 312 644.50 329Q629 346 594 346L594 366Q629 366 644 386Q659 406 663.50 433Q668 460 672 480L695 480Z"  horiz-adv-x="866" vert-adv-y="1000"  />

      
      <glyph glyph-name="uni42" unicode="&#x42;" d="M39 708Q62 707 98.50 706Q135 705 171 705Q219 705 262.50 706Q306 707 324 707Q436 707 491.50 663Q547 619 547 550Q547 515 530.50 480.50Q514 446 477 418.50Q440 391 379 375L379 373Q463 364 511 337Q559 310 579 272.50Q599 235 599 194Q599 106 532.50 53Q466 0 347 0Q325 0 280.50 1.50Q236 3 173 3Q135 3 98.50 2.50Q62 2 39 0L39 20Q73 22 90 28Q107 34 112.50 52Q118 70 118 106L118 602Q118 639 112.50 656.50Q107 674 89.50 680.50Q72 687 39 688L39 708M303 688Q260 688 246.50 671Q233 654 233 602L233 106Q233 54 247 38.50Q261 23 306 23Q396 23 436.50 68.50Q477 114 477 198Q477 275 436.50 317Q396 359 303 359L206 359Q206 359 206 367.50Q206 376 206 376L292 376Q347 376 377 398.50Q407 421 418 458.50Q429 496 429 539Q429 613 400 650.50Q371 688 303 688Z"  horiz-adv-x="639" vert-adv-y="1000"  />

      
      <glyph glyph-name="uni43" unicode="&#x43;" d="M380 722Q446 722 488.50 702.50Q531 683 564 657Q584 642 594.50 653.50Q605 665 609 708L632 708Q630 670 629 616.50Q628 563 628 474L605 474Q598 518 591.50 546Q585 574 574.50 594Q564 614 546 633Q517 669 475 685Q433 701 386 701Q335 701 296 675.50Q257 650 230.50 603Q204 556 190 492Q176 428 176 352Q176 274 191 210.50Q206 147 234.50 101.50Q263 56 303.50 31.50Q344 7 394 7Q435 7 479 23.50Q523 40 549 74Q577 104 587.50 141.50Q598 179 605 244L628 244Q628 152 629 95.50Q630 39 632 0L609 0Q605 43 595.50 54Q586 65 564 51Q527 25 485.50 5.50Q444-14 379-14Q280-14 206 29Q132 72 91 153Q50 234 50 348Q50 460 92.50 544Q135 628 209 675Q283 722 380 722Z"  horiz-adv-x="694" vert-adv-y="1000"  />

      
      <glyph glyph-name="uni0106" unicode="&#x0106;" d="M380 722Q446 722 488.50 702.50Q531 683 564 657Q584 642 594.50 653.50Q605 665 609 708L632 708Q630 670 629 616.50Q628 563 628 474L605 474Q598 518 591.50 546Q585 574 574.50 594Q564 614 546 633Q517 669 475 685Q433 701 386 701Q335 701 296 675.50Q257 650 230.50 603Q204 556 190 492Q176 428 176 352Q176 274 191 210.50Q206 147 234.50 101.50Q263 56 303.50 31.50Q344 7 394 7Q435 7 479 23.50Q523 40 549 74Q577 104 587.50 141.50Q598 179 605 244L628 244Q628 152 629 95.50Q630 39 632 0L609 0Q605 43 595.50 54Q586 65 564 51Q527 25 485.50 5.50Q444-14 379-14Q280-14 206 29Q132 72 91 153Q50 234 50 348Q50 460 92.50 544Q135 628 209 675Q283 722 380 722M470 929Q490 941 509.50 937Q529 933 538 917Q546 902 541 884.50Q536 867 514 853Q493 841 465.50 831.50Q438 822 401 809Q364 796 311 772L304 785Q351 821 379.50 848.50Q408 876 428 896Q448 916 470 929Z"  horiz-adv-x="694" vert-adv-y="1000"  />

      
      <glyph glyph-name="uni010C" unicode="&#x010C;" d="M380 722Q446 722 488.50 702.50Q531 683 564 657Q584 642 594.50 653.50Q605 665 609 708L632 708Q630 670 629 616.50Q628 563 628 474L605 474Q598 518 591.50 546Q585 574 574.50 594Q564 614 546 633Q517 669 475 685Q433 701 386 701Q335 701 296 675.50Q257 650 230.50 603Q204 556 190 492Q176 428 176 352Q176 274 191 210.50Q206 147 234.50 101.50Q263 56 303.50 31.50Q344 7 394 7Q435 7 479 23.50Q523 40 549 74Q577 104 587.50 141.50Q598 179 605 244L628 244Q628 152 629 95.50Q630 39 632 0L609 0Q605 43 595.50 54Q586 65 564 51Q527 25 485.50 5.50Q444-14 379-14Q280-14 206 29Q132 72 91 153Q50 234 50 348Q50 460 92.50 544Q135 628 209 675Q283 722 380 722M563 930L568 916Q503 892 452 854Q401 816 375 776L357 776Q332 816 280.50 854Q229 892 164 916L169 930Q231 918 291 899Q351 880 386 862Q416 880 464.50 899Q513 918 563 930Z"  horiz-adv-x="694" vert-adv-y="1000"  />

      
      <glyph glyph-name="unic7" unicode="&#xc7;" d="M380 722Q446 722 488.50 702.50Q531 683 564 657Q584 642 594.50 653.50Q605 665 609 708L632 708Q630 670 629 616.50Q628 563 628 474L605 474Q598 518 591.50 546Q585 574 574.50 594Q564 614 546 633Q517 669 475 685Q433 701 386 701Q335 701 296 675.50Q257 650 230.50 603Q204 556 190 492Q176 428 176 352Q176 274 191 210.50Q206 147 234.50 101.50Q263 56 303.50 31.50Q344 7 394 7Q435 7 479 23.50Q523 40 549 74Q577 104 587.50 141.50Q598 179 605 244L628 244Q628 152 629 95.50Q630 39 632 0L609 0Q605 43 595.50 54Q586 65 564 51Q527 25 485.50 5.50Q444-14 379-14Q280-14 206 29Q132 72 91 153Q50 234 50 348Q50 460 92.50 544Q135 628 209 675Q283 722 380 722M395 5L370-70Q384-66 400.50-63.50Q417-61 435-61Q466-61 483.50-74Q501-87 501-110Q501-138 481-155Q461-172 432-180Q403-188 373-188Q344-188 322.50-184.50Q301-181 286-177L291-159Q296-160 307.50-161Q319-162 333-162Q362-162 392.50-153Q423-144 423-118Q423-104 411.50-97.50Q400-91 380-91Q372-91 358-92.50Q344-94 334-98L368 5L395 5Z"  horiz-adv-x="694" vert-adv-y="1000"  />

      
      <glyph glyph-name="uni0108" unicode="&#x0108;" d="M380 722Q446 722 488.50 702.50Q531 683 564 657Q584 642 594.50 653.50Q605 665 609 708L632 708Q630 670 629 616.50Q628 563 628 474L605 474Q598 518 591.50 546Q585 574 574.50 594Q564 614 546 633Q517 669 475 685Q433 701 386 701Q335 701 296 675.50Q257 650 230.50 603Q204 556 190 492Q176 428 176 352Q176 274 191 210.50Q206 147 234.50 101.50Q263 56 303.50 31.50Q344 7 394 7Q435 7 479 23.50Q523 40 549 74Q577 104 587.50 141.50Q598 179 605 244L628 244Q628 152 629 95.50Q630 39 632 0L609 0Q605 43 595.50 54Q586 65 564 51Q527 25 485.50 5.50Q444-14 379-14Q280-14 206 29Q132 72 91 153Q50 234 50 348Q50 460 92.50 544Q135 628 209 675Q283 722 380 722M378 924Q403 884 454.50 846.50Q506 809 571 784L566 770Q504 782 444.50 801Q385 820 349 838Q320 820 271 801Q222 782 172 770L167 784Q232 809 283 846.50Q334 884 360 924L378 924Z"  horiz-adv-x="694" vert-adv-y="1000"  />

      
      <glyph glyph-name="uni010A" unicode="&#x010A;" d="M380 722Q446 722 488.50 702.50Q531 683 564 657Q584 642 594.50 653.50Q605 665 609 708L632 708Q630 670 629 616.50Q628 563 628 474L605 474Q598 518 591.50 546Q585 574 574.50 594Q564 614 546 633Q517 669 475 685Q433 701 386 701Q335 701 296 675.50Q257 650 230.50 603Q204 556 190 492Q176 428 176 352Q176 274 191 210.50Q206 147 234.50 101.50Q263 56 303.50 31.50Q344 7 394 7Q435 7 479 23.50Q523 40 549 74Q577 104 587.50 141.50Q598 179 605 244L628 244Q628 152 629 95.50Q630 39 632 0L609 0Q605 43 595.50 54Q586 65 564 51Q527 25 485.50 5.50Q444-14 379-14Q280-14 206 29Q132 72 91 153Q50 234 50 348Q50 460 92.50 544Q135 628 209 675Q283 722 380 722M370 906Q400 906 420.50 886.50Q441 867 441 838Q441 809 420.50 789.50Q400 770 370 770Q339 770 319 789.50Q299 809 299 838Q299 867 319 886.50Q339 906 370 906Z"  horiz-adv-x="694" vert-adv-y="1000"  />

      
      <glyph glyph-name="uni44" unicode="&#x44;" d="M324 708Q509 708 599 618.50Q689 529 689 362Q689 253 645 171.50Q601 90 517.50 45Q434 0 315 0Q293 0 249.50 1.50Q206 3 173 3Q135 3 98.50 2.50Q62 2 39 0L39 20Q73 22 90 28Q107 34 112.50 52Q118 70 118 106L118 602Q118 639 112.50 656.50Q107 674 89.50 680.50Q72 687 39 688L39 708Q62 707 98.50 705.50Q135 704 171 705Q207 706 251.50 707Q296 708 324 708M307 690Q261 690 247 673Q233 656 233 604L233 104Q233 52 247.50 35Q262 18 308 18Q409 18 465 57.50Q521 97 544 173Q567 249 567 358Q567 526 509 608Q451 690 307 690Z"  horiz-adv-x="741" vert-adv-y="1000"  />

      
      <glyph glyph-name="unid0" unicode="&#xd0;" d="M324 708Q509 708 599 618.50Q689 529 689 362Q689 253 645 171.50Q601 90 517.50 45Q434 0 315 0Q293 0 249.50 1.50Q206 3 173 3Q135 3 98.50 2.50Q62 2 39 0L39 20Q73 22 90 28Q107 34 112.50 52Q118 70 118 106L118 602Q118 639 112.50 656.50Q107 674 89.50 680.50Q72 687 39 688L39 708Q62 707 98.50 705.50Q135 704 171 705Q207 706 251.50 707Q296 708 324 708M307 690Q261 690 247 673Q233 656 233 604L233 104Q233 52 247.50 35Q262 18 308 18Q409 18 465 57.50Q521 97 544 173Q567 249 567 358Q567 526 509 608Q451 690 307 690M373 366L373 346L9 346L9 366L373 366Z"  horiz-adv-x="741" vert-adv-y="1000"  />

      
      <glyph glyph-name="uni010E" unicode="&#x010E;" d="M324 708Q509 708 599 618.50Q689 529 689 362Q689 253 645 171.50Q601 90 517.50 45Q434 0 315 0Q293 0 249.50 1.50Q206 3 173 3Q135 3 98.50 2.50Q62 2 39 0L39 20Q73 22 90 28Q107 34 112.50 52Q118 70 118 106L118 602Q118 639 112.50 656.50Q107 674 89.50 680.50Q72 687 39 688L39 708Q62 707 98.50 705.50Q135 704 171 705Q207 706 251.50 707Q296 708 324 708M307 690Q261 690 247 673Q233 656 233 604L233 104Q233 52 247.50 35Q262 18 308 18Q409 18 465 57.50Q521 97 544 173Q567 249 567 358Q567 526 509 608Q451 690 307 690M518 930L523 916Q458 892 407 854Q356 816 330 776L312 776Q287 816 235.50 854Q184 892 119 916L124 930Q186 918 246 899Q306 880 341 862Q371 880 419.50 899Q468 918 518 930Z"  horiz-adv-x="741" vert-adv-y="1000"  />

      
      <glyph glyph-name="uni0110" unicode="&#x0110;" d="M324 708Q509 708 599 618.50Q689 529 689 362Q689 253 645 171.50Q601 90 517.50 45Q434 0 315 0Q293 0 249.50 1.50Q206 3 173 3Q135 3 98.50 2.50Q62 2 39 0L39 20Q73 22 90 28Q107 34 112.50 52Q118 70 118 106L118 602Q118 639 112.50 656.50Q107 674 89.50 680.50Q72 687 39 688L39 708Q62 707 98.50 705.50Q135 704 171 705Q207 706 251.50 707Q296 708 324 708M307 690Q261 690 247 673Q233 656 233 604L233 104Q233 52 247.50 35Q262 18 308 18Q409 18 465 57.50Q521 97 544 173Q567 249 567 358Q567 526 509 608Q451 690 307 690M373 366L373 346L9 346L9 366L373 366Z"  horiz-adv-x="741" vert-adv-y="1000"  />

      
      <glyph glyph-name="uni45" unicode="&#x45;" d="M550 708Q546 670 544.50 634.50Q543 599 543 580Q543 561 544 544Q545 527 546 516L523 516Q516 580 501.50 617Q487 654 458.50 669.50Q430 685 379 685L310 685Q278 685 261.50 679.50Q245 674 239 657.50Q233 641 233 606L233 102Q233 68 239 51Q245 34 261.50 28.50Q278 23 310 23L375 23Q432 23 465.50 41Q499 59 516.50 100Q534 141 543 212L566 212Q563 183 563 136Q563 116 564.50 78Q566 40 570 0Q519 2 455 2.50Q391 3 341 3Q310 3 258.50 3Q207 3 148.50 2.50Q90 2 39 0L39 20Q73 22 90 28Q107 34 112.50 52Q118 70 118 106L118 602Q118 639 112.50 656.50Q107 674 89.50 680.50Q72 687 39 688L39 708Q90 707 148.50 706Q207 705 258.50 705Q310 705 341 705Q387 705 445.50 705.50Q504 706 550 708M384 366Q384 366 384 356Q384 346 384 346L203 346Q203 346 203 356Q203 366 203 366L384 366M413 498Q409 441 409.50 411Q410 381 410 356Q410 331 411 301Q412 271 416 214L393 214Q388 247 380 277.50Q372 308 351.50 327Q331 346 288 346L288 366Q331 366 350.50 388.50Q370 411 377.50 442Q385 473 390 498L413 498Z"  horiz-adv-x="617" vert-adv-y="1000"  />

      
      <glyph glyph-name="unic9" unicode="&#xc9;" d="M550 708Q546 670 544.50 634.50Q543 599 543 580Q543 561 544 544Q545 527 546 516L523 516Q516 580 501.50 617Q487 654 458.50 669.50Q430 685 379 685L310 685Q278 685 261.50 679.50Q245 674 239 657.50Q233 641 233 606L233 102Q233 68 239 51Q245 34 261.50 28.50Q278 23 310 23L375 23Q432 23 465.50 41Q499 59 516.50 100Q534 141 543 212L566 212Q563 183 563 136Q563 116 564.50 78Q566 40 570 0Q519 2 455 2.50Q391 3 341 3Q310 3 258.50 3Q207 3 148.50 2.50Q90 2 39 0L39 20Q73 22 90 28Q107 34 112.50 52Q118 70 118 106L118 602Q118 639 112.50 656.50Q107 674 89.50 680.50Q72 687 39 688L39 708Q90 707 148.50 706Q207 705 258.50 705Q310 705 341 705Q387 705 445.50 705.50Q504 706 550 708M384 366Q384 366 384 356Q384 346 384 346L203 346Q203 346 203 356Q203 366 203 366L384 366M413 498Q409 441 409.50 411Q410 381 410 356Q410 331 411 301Q412 271 416 214L393 214Q388 247 380 277.50Q372 308 351.50 327Q331 346 288 346L288 366Q331 366 350.50 388.50Q370 411 377.50 442Q385 473 390 498L413 498M410 929Q430 941 449.50 937Q469 933 478 917Q486 902 481 884.50Q476 867 454 853Q433 841 405.50 831.50Q378 822 341 809Q304 796 251 772L244 785Q291 821 319.50 848.50Q348 876 368 896Q388 916 410 929Z"  horiz-adv-x="617" vert-adv-y="1000"  />

      
      <glyph glyph-name="uni0114" unicode="&#x0114;" d="M550 708Q546 670 544.50 634.50Q543 599 543 580Q543 561 544 544Q545 527 546 516L523 516Q516 580 501.50 617Q487 654 458.50 669.50Q430 685 379 685L310 685Q278 685 261.50 679.50Q245 674 239 657.50Q233 641 233 606L233 102Q233 68 239 51Q245 34 261.50 28.50Q278 23 310 23L375 23Q432 23 465.50 41Q499 59 516.50 100Q534 141 543 212L566 212Q563 183 563 136Q563 116 564.50 78Q566 40 570 0Q519 2 455 2.50Q391 3 341 3Q310 3 258.50 3Q207 3 148.50 2.50Q90 2 39 0L39 20Q73 22 90 28Q107 34 112.50 52Q118 70 118 106L118 602Q118 639 112.50 656.50Q107 674 89.50 680.50Q72 687 39 688L39 708Q90 707 148.50 706Q207 705 258.50 705Q310 705 341 705Q387 705 445.50 705.50Q504 706 550 708M384 366Q384 366 384 356Q384 346 384 346L203 346Q203 346 203 356Q203 366 203 366L384 366M413 498Q409 441 409.50 411Q410 381 410 356Q410 331 411 301Q412 271 416 214L393 214Q388 247 380 277.50Q372 308 351.50 327Q331 346 288 346L288 366Q331 366 350.50 388.50Q370 411 377.50 442Q385 473 390 498L413 498M502 911L514 900Q499 873 471 844.50Q443 816 402 797Q361 778 307 778Q253 778 212 797Q171 816 143 844.50Q115 873 100 900L113 910Q137 889 184.50 868.50Q232 848 307 848Q382 848 430 869Q478 890 502 911Z"  horiz-adv-x="617" vert-adv-y="1000"  />

      
      <glyph glyph-name="uni011A" unicode="&#x011A;" d="M550 708Q546 670 544.50 634.50Q543 599 543 580Q543 561 544 544Q545 527 546 516L523 516Q516 580 501.50 617Q487 654 458.50 669.50Q430 685 379 685L310 685Q278 685 261.50 679.50Q245 674 239 657.50Q233 641 233 606L233 102Q233 68 239 51Q245 34 261.50 28.50Q278 23 310 23L375 23Q432 23 465.50 41Q499 59 516.50 100Q534 141 543 212L566 212Q563 183 563 136Q563 116 564.50 78Q566 40 570 0Q519 2 455 2.50Q391 3 341 3Q310 3 258.50 3Q207 3 148.50 2.50Q90 2 39 0L39 20Q73 22 90 28Q107 34 112.50 52Q118 70 118 106L118 602Q118 639 112.50 656.50Q107 674 89.50 680.50Q72 687 39 688L39 708Q90 707 148.50 706Q207 705 258.50 705Q310 705 341 705Q387 705 445.50 705.50Q504 706 550 708M384 366Q384 366 384 356Q384 346 384 346L203 346Q203 346 203 356Q203 366 203 366L384 366M413 498Q409 441 409.50 411Q410 381 410 356Q410 331 411 301Q412 271 416 214L393 214Q388 247 380 277.50Q372 308 351.50 327Q331 346 288 346L288 366Q331 366 350.50 388.50Q370 411 377.50 442Q385 473 390 498L413 498M503 930L508 916Q443 892 392 854Q341 816 315 776L297 776Q272 816 220.50 854Q169 892 104 916L109 930Q171 918 231 899Q291 880 326 862Q356 880 404.50 899Q453 918 503 930Z"  horiz-adv-x="617" vert-adv-y="1000"  />

      
      <glyph glyph-name="unica" unicode="&#xca;" d="M550 708Q546 670 544.50 634.50Q543 599 543 580Q543 561 544 544Q545 527 546 516L523 516Q516 580 501.50 617Q487 654 458.50 669.50Q430 685 379 685L310 685Q278 685 261.50 679.50Q245 674 239 657.50Q233 641 233 606L233 102Q233 68 239 51Q245 34 261.50 28.50Q278 23 310 23L375 23Q432 23 465.50 41Q499 59 516.50 100Q534 141 543 212L566 212Q563 183 563 136Q563 116 564.50 78Q566 40 570 0Q519 2 455 2.50Q391 3 341 3Q310 3 258.50 3Q207 3 148.50 2.50Q90 2 39 0L39 20Q73 22 90 28Q107 34 112.50 52Q118 70 118 106L118 602Q118 639 112.50 656.50Q107 674 89.50 680.50Q72 687 39 688L39 708Q90 707 148.50 706Q207 705 258.50 705Q310 705 341 705Q387 705 445.50 705.50Q504 706 550 708M384 366Q384 366 384 356Q384 346 384 346L203 346Q203 346 203 356Q203 366 203 366L384 366M413 498Q409 441 409.50 411Q410 381 410 356Q410 331 411 301Q412 271 416 214L393 214Q388 247 380 277.50Q372 308 351.50 327Q331 346 288 346L288 366Q331 366 350.50 388.50Q370 411 377.50 442Q385 473 390 498L413 498M318 924Q343 884 394.50 846.50Q446 809 511 784L506 770Q444 782 384.50 801Q325 820 289 838Q260 820 211 801Q162 782 112 770L107 784Q172 809 223 846.50Q274 884 300 924L318 924Z"  horiz-adv-x="617" vert-adv-y="1000"  />

      
      <glyph glyph-name="uni1EBE" unicode="&#x1EBE;" d="M550 708Q546 670 544.50 634.50Q543 599 543 580Q543 561 544 544Q545 527 546 516L523 516Q516 580 501.50 617Q487 654 458.50 669.50Q430 685 379 685L310 685Q278 685 261.50 679.50Q245 674 239 657.50Q233 641 233 606L233 102Q233 68 239 51Q245 34 261.50 28.50Q278 23 310 23L375 23Q432 23 465.50 41Q499 59 516.50 100Q534 141 543 212L566 212Q563 183 563 136Q563 116 564.50 78Q566 40 570 0Q519 2 455 2.50Q391 3 341 3Q310 3 258.50 3Q207 3 148.50 2.50Q90 2 39 0L39 20Q73 22 90 28Q107 34 112.50 52Q118 70 118 106L118 602Q118 639 112.50 656.50Q107 674 89.50 680.50Q72 687 39 688L39 708Q90 707 148.50 706Q207 705 258.50 705Q310 705 341 705Q387 705 445.50 705.50Q504 706 550 708M384 366Q384 366 384 356Q384 346 384 346L203 346Q203 346 203 356Q203 366 203 366L384 366M413 498Q409 441 409.50 411Q410 381 410 356Q410 331 411 301Q412 271 416 214L393 214Q388 247 380 277.50Q372 308 351.50 327Q331 346 288 346L288 366Q331 366 350.50 388.50Q370 411 377.50 442Q385 473 390 498L413 498M318 924Q343 884 394.50 846.50Q446 809 511 784L506 770Q444 782 384.50 801Q325 820 289 838Q260 820 211 801Q162 782 112 770L107 784Q172 809 223 846.50Q274 884 300 924L318 924M410 1149Q430 1161 449.50 1157Q469 1153 478 1137Q486 1122 481 1104.50Q476 1087 454 1073Q433 1061 405.50 1051.50Q378 1042 341 1029Q304 1016 251 992L244 1005Q291 1041 319.50 1068.50Q348 1096 368 1116Q388 1136 410 1149Z"  horiz-adv-x="617" vert-adv-y="1000"  />

      
      <glyph glyph-name="uni1EC6" unicode="&#x1EC6;" d="M550 708Q546 670 544.50 634.50Q543 599 543 580Q543 561 544 544Q545 527 546 516L523 516Q516 580 501.50 617Q487 654 458.50 669.50Q430 685 379 685L310 685Q278 685 261.50 679.50Q245 674 239 657.50Q233 641 233 606L233 102Q233 68 239 51Q245 34 261.50 28.50Q278 23 310 23L375 23Q432 23 465.50 41Q499 59 516.50 100Q534 141 543 212L566 212Q563 183 563 136Q563 116 564.50 78Q566 40 570 0Q519 2 455 2.50Q391 3 341 3Q310 3 258.50 3Q207 3 148.50 2.50Q90 2 39 0L39 20Q73 22 90 28Q107 34 112.50 52Q118 70 118 106L118 602Q118 639 112.50 656.50Q107 674 89.50 680.50Q72 687 39 688L39 708Q90 707 148.50 706Q207 705 258.50 705Q310 705 341 705Q387 705 445.50 705.50Q504 706 550 708M384 366Q384 366 384 356Q384 346 384 346L203 346Q203 346 203 356Q203 366 203 366L384 366M413 498Q409 441 409.50 411Q410 381 410 356Q410 331 411 301Q412 271 416 214L393 214Q388 247 380 277.50Q372 308 351.50 327Q331 346 288 346L288 366Q331 366 350.50 388.50Q370 411 377.50 442Q385 473 390 498L413 498M318 1001Q340 949 385.50 900.50Q431 852 489 821L481 807Q426 824 374 849Q322 874 289 899Q263 874 221.50 849Q180 824 137 807L129 821Q187 852 232.50 900.50Q278 949 300 1001L318 1001M325-183Q298-183 279.50-167Q261-151 261-124Q261-98 278-81Q295-64 325-64Q355-64 372-81.50Q389-99 389-124Q389-151 370.50-167Q352-183 325-183Z"  horiz-adv-x="617" vert-adv-y="1000"  />

      
      <glyph glyph-name="uni1EC0" unicode="&#x1EC0;" d="M550 708Q546 670 544.50 634.50Q543 599 543 580Q543 561 544 544Q545 527 546 516L523 516Q516 580 501.50 617Q487 654 458.50 669.50Q430 685 379 685L310 685Q278 685 261.50 679.50Q245 674 239 657.50Q233 641 233 606L233 102Q233 68 239 51Q245 34 261.50 28.50Q278 23 310 23L375 23Q432 23 465.50 41Q499 59 516.50 100Q534 141 543 212L566 212Q563 183 563 136Q563 116 564.50 78Q566 40 570 0Q519 2 455 2.50Q391 3 341 3Q310 3 258.50 3Q207 3 148.50 2.50Q90 2 39 0L39 20Q73 22 90 28Q107 34 112.50 52Q118 70 118 106L118 602Q118 639 112.50 656.50Q107 674 89.50 680.50Q72 687 39 688L39 708Q90 707 148.50 706Q207 705 258.50 705Q310 705 341 705Q387 705 445.50 705.50Q504 706 550 708M384 366Q384 366 384 356Q384 346 384 346L203 346Q203 346 203 356Q203 366 203 366L384 366M413 498Q409 441 409.50 411Q410 381 410 356Q410 331 411 301Q412 271 416 214L393 214Q388 247 380 277.50Q372 308 351.50 327Q331 346 288 346L288 366Q331 366 350.50 388.50Q370 411 377.50 442Q385 473 390 498L413 498M318 924Q343 884 394.50 846.50Q446 809 511 784L506 770Q444 782 384.50 801Q325 820 289 838Q260 820 211 801Q162 782 112 770L107 784Q172 809 223 846.50Q274 884 300 924L318 924M210 1149Q232 1136 252 1116Q272 1096 301 1068.50Q330 1041 376 1005L369 992Q317 1016 279 1029Q241 1042 214.50 1051.50Q188 1061 166 1073Q144 1087 139 1104.50Q134 1122 142 1137Q152 1153 171 1157Q190 1161 210 1149Z"  horiz-adv-x="617" vert-adv-y="1000"  />

      
      <glyph glyph-name="uni1EC2" unicode="&#x1EC2;" d="M550 708Q546 670 544.50 634.50Q543 599 543 580Q543 561 544 544Q545 527 546 516L523 516Q516 580 501.50 617Q487 654 458.50 669.50Q430 685 379 685L310 685Q278 685 261.50 679.50Q245 674 239 657.50Q233 641 233 606L233 102Q233 68 239 51Q245 34 261.50 28.50Q278 23 310 23L375 23Q432 23 465.50 41Q499 59 516.50 100Q534 141 543 212L566 212Q563 183 563 136Q563 116 564.50 78Q566 40 570 0Q519 2 455 2.50Q391 3 341 3Q310 3 258.50 3Q207 3 148.50 2.50Q90 2 39 0L39 20Q73 22 90 28Q107 34 112.50 52Q118 70 118 106L118 602Q118 639 112.50 656.50Q107 674 89.50 680.50Q72 687 39 688L39 708Q90 707 148.50 706Q207 705 258.50 705Q310 705 341 705Q387 705 445.50 705.50Q504 706 550 708M384 366Q384 366 384 356Q384 346 384 346L203 346Q203 346 203 356Q203 366 203 366L384 366M413 498Q409 441 409.50 411Q410 381 410 356Q410 331 411 301Q412 271 416 214L393 214Q388 247 380 277.50Q372 308 351.50 327Q331 346 288 346L288 366Q331 366 350.50 388.50Q370 411 377.50 442Q385 473 390 498L413 498M318 924Q343 884 394.50 846.50Q446 809 511 784L506 770Q444 782 384.50 801Q325 820 289 838Q260 820 211 801Q162 782 112 770L107 784Q172 809 223 846.50Q274 884 300 924L318 924M463 917L463 972Q499 986 514 1005.50Q529 1025 529 1048Q529 1077 508 1092Q487 1107 457 1107Q444 1107 430.50 1103.50Q417 1100 410 1092Q445 1083 445 1047Q445 1025 431.50 1012.50Q418 1000 397 1000Q377 1000 364 1012.50Q351 1025 351 1046Q351 1066 363 1081Q375 1096 390 1106Q406 1115 426.50 1121Q447 1127 479 1127Q510 1127 539 1119.50Q568 1112 587 1096Q606 1080 606 1053Q606 1020 572 996.50Q538 973 483 963L483 917L463 917Z"  horiz-adv-x="617" vert-adv-y="1000"  />

      
      <glyph glyph-name="uni1EC4" unicode="&#x1EC4;" d="M550 708Q546 670 544.50 634.50Q543 599 543 580Q543 561 544 544Q545 527 546 516L523 516Q516 580 501.50 617Q487 654 458.50 669.50Q430 685 379 685L310 685Q278 685 261.50 679.50Q245 674 239 657.50Q233 641 233 606L233 102Q233 68 239 51Q245 34 261.50 28.50Q278 23 310 23L375 23Q432 23 465.50 41Q499 59 516.50 100Q534 141 543 212L566 212Q563 183 563 136Q563 116 564.50 78Q566 40 570 0Q519 2 455 2.50Q391 3 341 3Q310 3 258.50 3Q207 3 148.50 2.50Q90 2 39 0L39 20Q73 22 90 28Q107 34 112.50 52Q118 70 118 106L118 602Q118 639 112.50 656.50Q107 674 89.50 680.50Q72 687 39 688L39 708Q90 707 148.50 706Q207 705 258.50 705Q310 705 341 705Q387 705 445.50 705.50Q504 706 550 708M384 366Q384 366 384 356Q384 346 384 346L203 346Q203 346 203 356Q203 366 203 366L384 366M413 498Q409 441 409.50 411Q410 381 410 356Q410 331 411 301Q412 271 416 214L393 214Q388 247 380 277.50Q372 308 351.50 327Q331 346 288 346L288 366Q331 366 350.50 388.50Q370 411 377.50 442Q385 473 390 498L413 498M318 924Q343 884 394.50 846.50Q446 809 511 784L506 770Q444 782 384.50 801Q325 820 289 838Q260 820 211 801Q162 782 112 770L107 784Q172 809 223 846.50Q274 884 300 924L318 924M226 1129Q256 1129 281 1118Q306 1107 328.50 1092Q351 1077 374.50 1065.50Q398 1054 425 1054Q446 1054 464 1066.50Q482 1079 494 1110L509 1106Q502 1050 467.50 1020.50Q433 991 390 991Q360 991 335 1002Q310 1013 287 1028Q264 1043 241 1054.50Q218 1066 191 1066Q169 1066 151 1053.50Q133 1041 122 1010L107 1014Q115 1070 149 1099.50Q183 1129 226 1129Z"  horiz-adv-x="617" vert-adv-y="1000"  />

      
      <glyph glyph-name="unicb" unicode="&#xcb;" d="M550 708Q546 670 544.50 634.50Q543 599 543 580Q543 561 544 544Q545 527 546 516L523 516Q516 580 501.50 617Q487 654 458.50 669.50Q430 685 379 685L310 685Q278 685 261.50 679.50Q245 674 239 657.50Q233 641 233 606L233 102Q233 68 239 51Q245 34 261.50 28.50Q278 23 310 23L375 23Q432 23 465.50 41Q499 59 516.50 100Q534 141 543 212L566 212Q563 183 563 136Q563 116 564.50 78Q566 40 570 0Q519 2 455 2.50Q391 3 341 3Q310 3 258.50 3Q207 3 148.50 2.50Q90 2 39 0L39 20Q73 22 90 28Q107 34 112.50 52Q118 70 118 106L118 602Q118 639 112.50 656.50Q107 674 89.50 680.50Q72 687 39 688L39 708Q90 707 148.50 706Q207 705 258.50 705Q310 705 341 705Q387 705 445.50 705.50Q504 706 550 708M384 366Q384 366 384 356Q384 346 384 346L203 346Q203 346 203 356Q203 366 203 366L384 366M413 498Q409 441 409.50 411Q410 381 410 356Q410 331 411 301Q412 271 416 214L393 214Q388 247 380 277.50Q372 308 351.50 327Q331 346 288 346L288 366Q331 366 350.50 388.50Q370 411 377.50 442Q385 473 390 498L413 498M420 898Q445 898 464 878.50Q483 859 483 834Q483 807 464 788.50Q445 770 420 770Q393 770 374.50 788.50Q356 807 356 834Q356 859 374.50 878.50Q393 898 420 898M198 898Q224 898 243 878.50Q262 859 262 834Q262 807 243 788.50Q224 770 198 770Q172 770 153.50 788.50Q135 807 135 834Q135 859 153.50 878.50Q172 898 198 898Z"  horiz-adv-x="617" vert-adv-y="1000"  />

      
      <glyph glyph-name="uni0116" unicode="&#x0116;" d="M550 708Q546 670 544.50 634.50Q543 599 543 580Q543 561 544 544Q545 527 546 516L523 516Q516 580 501.50 617Q487 654 458.50 669.50Q430 685 379 685L310 685Q278 685 261.50 679.50Q245 674 239 657.50Q233 641 233 606L233 102Q233 68 239 51Q245 34 261.50 28.50Q278 23 310 23L375 23Q432 23 465.50 41Q499 59 516.50 100Q534 141 543 212L566 212Q563 183 563 136Q563 116 564.50 78Q566 40 570 0Q519 2 455 2.50Q391 3 341 3Q310 3 258.50 3Q207 3 148.50 2.50Q90 2 39 0L39 20Q73 22 90 28Q107 34 112.50 52Q118 70 118 106L118 602Q118 639 112.50 656.50Q107 674 89.50 680.50Q72 687 39 688L39 708Q90 707 148.50 706Q207 705 258.50 705Q310 705 341 705Q387 705 445.50 705.50Q504 706 550 708M384 366Q384 366 384 356Q384 346 384 346L203 346Q203 346 203 356Q203 366 203 366L384 366M413 498Q409 441 409.50 411Q410 381 410 356Q410 331 411 301Q412 271 416 214L393 214Q388 247 380 277.50Q372 308 351.50 327Q331 346 288 346L288 366Q331 366 350.50 388.50Q370 411 377.50 442Q385 473 390 498L413 498M309 906Q339 906 359.50 886.50Q380 867 380 838Q380 809 359.50 789.50Q339 770 309 770Q278 770 258 789.50Q238 809 238 838Q238 867 258 886.50Q278 906 309 906Z"  horiz-adv-x="617" vert-adv-y="1000"  />

      
      <glyph glyph-name="uni1EB8" unicode="&#x1EB8;" d="M550 708Q546 670 544.50 634.50Q543 599 543 580Q543 561 544 544Q545 527 546 516L523 516Q516 580 501.50 617Q487 654 458.50 669.50Q430 685 379 685L310 685Q278 685 261.50 679.50Q245 674 239 657.50Q233 641 233 606L233 102Q233 68 239 51Q245 34 261.50 28.50Q278 23 310 23L375 23Q432 23 465.50 41Q499 59 516.50 100Q534 141 543 212L566 212Q563 183 563 136Q563 116 564.50 78Q566 40 570 0Q519 2 455 2.50Q391 3 341 3Q310 3 258.50 3Q207 3 148.50 2.50Q90 2 39 0L39 20Q73 22 90 28Q107 34 112.50 52Q118 70 118 106L118 602Q118 639 112.50 656.50Q107 674 89.50 680.50Q72 687 39 688L39 708Q90 707 148.50 706Q207 705 258.50 705Q310 705 341 705Q387 705 445.50 705.50Q504 706 550 708M384 366Q384 366 384 356Q384 346 384 346L203 346Q203 346 203 356Q203 366 203 366L384 366M413 498Q409 441 409.50 411Q410 381 410 356Q410 331 411 301Q412 271 416 214L393 214Q388 247 380 277.50Q372 308 351.50 327Q331 346 288 346L288 366Q331 366 350.50 388.50Q370 411 377.50 442Q385 473 390 498L413 498M325-183Q298-183 279.50-167Q261-151 261-124Q261-98 278-81Q295-64 325-64Q355-64 372-81.50Q389-99 389-124Q389-151 370.50-167Q352-183 325-183Z"  horiz-adv-x="617" vert-adv-y="1000"  />

      
      <glyph glyph-name="unic8" unicode="&#xc8;" d="M550 708Q546 670 544.50 634.50Q543 599 543 580Q543 561 544 544Q545 527 546 516L523 516Q516 580 501.50 617Q487 654 458.50 669.50Q430 685 379 685L310 685Q278 685 261.50 679.50Q245 674 239 657.50Q233 641 233 606L233 102Q233 68 239 51Q245 34 261.50 28.50Q278 23 310 23L375 23Q432 23 465.50 41Q499 59 516.50 100Q534 141 543 212L566 212Q563 183 563 136Q563 116 564.50 78Q566 40 570 0Q519 2 455 2.50Q391 3 341 3Q310 3 258.50 3Q207 3 148.50 2.50Q90 2 39 0L39 20Q73 22 90 28Q107 34 112.50 52Q118 70 118 106L118 602Q118 639 112.50 656.50Q107 674 89.50 680.50Q72 687 39 688L39 708Q90 707 148.50 706Q207 705 258.50 705Q310 705 341 705Q387 705 445.50 705.50Q504 706 550 708M384 366Q384 366 384 356Q384 346 384 346L203 346Q203 346 203 356Q203 366 203 366L384 366M413 498Q409 441 409.50 411Q410 381 410 356Q410 331 411 301Q412 271 416 214L393 214Q388 247 380 277.50Q372 308 351.50 327Q331 346 288 346L288 366Q331 366 350.50 388.50Q370 411 377.50 442Q385 473 390 498L413 498M210 929Q232 916 252 896Q272 876 301 848.50Q330 821 376 785L369 772Q317 796 279 809Q241 822 214.50 831.50Q188 841 166 853Q144 867 139 884.50Q134 902 142 917Q152 933 171 937Q190 941 210 929Z"  horiz-adv-x="617" vert-adv-y="1000"  />

      
      <glyph glyph-name="uni1EBA" unicode="&#x1EBA;" d="M550 708Q546 670 544.50 634.50Q543 599 543 580Q543 561 544 544Q545 527 546 516L523 516Q516 580 501.50 617Q487 654 458.50 669.50Q430 685 379 685L310 685Q278 685 261.50 679.50Q245 674 239 657.50Q233 641 233 606L233 102Q233 68 239 51Q245 34 261.50 28.50Q278 23 310 23L375 23Q432 23 465.50 41Q499 59 516.50 100Q534 141 543 212L566 212Q563 183 563 136Q563 116 564.50 78Q566 40 570 0Q519 2 455 2.50Q391 3 341 3Q310 3 258.50 3Q207 3 148.50 2.50Q90 2 39 0L39 20Q73 22 90 28Q107 34 112.50 52Q118 70 118 106L118 602Q118 639 112.50 656.50Q107 674 89.50 680.50Q72 687 39 688L39 708Q90 707 148.50 706Q207 705 258.50 705Q310 705 341 705Q387 705 445.50 705.50Q504 706 550 708M384 366Q384 366 384 356Q384 346 384 346L203 346Q203 346 203 356Q203 366 203 366L384 366M413 498Q409 441 409.50 411Q410 381 410 356Q410 331 411 301Q412 271 416 214L393 214Q388 247 380 277.50Q372 308 351.50 327Q331 346 288 346L288 366Q331 366 350.50 388.50Q370 411 377.50 442Q385 473 390 498L413 498M297 765L297 820Q333 834 348 853.50Q363 873 363 896Q363 925 342 940Q321 955 291 955Q278 955 264.50 951.50Q251 948 244 940Q279 931 279 895Q279 873 265.50 860.50Q252 848 231 848Q211 848 198 860.50Q185 873 185 894Q185 914 197 929Q209 944 224 954Q240 963 260.50 969Q281 975 313 975Q344 975 373 967.50Q402 960 421 944Q440 928 440 901Q440 868 406 844.50Q372 821 317 811L317 765L297 765Z"  horiz-adv-x="617" vert-adv-y="1000"  />

      
      <glyph glyph-name="uni0112" unicode="&#x0112;" d="M550 708Q546 670 544.50 634.50Q543 599 543 580Q543 561 544 544Q545 527 546 516L523 516Q516 580 501.50 617Q487 654 458.50 669.50Q430 685 379 685L310 685Q278 685 261.50 679.50Q245 674 239 657.50Q233 641 233 606L233 102Q233 68 239 51Q245 34 261.50 28.50Q278 23 310 23L375 23Q432 23 465.50 41Q499 59 516.50 100Q534 141 543 212L566 212Q563 183 563 136Q563 116 564.50 78Q566 40 570 0Q519 2 455 2.50Q391 3 341 3Q310 3 258.50 3Q207 3 148.50 2.50Q90 2 39 0L39 20Q73 22 90 28Q107 34 112.50 52Q118 70 118 106L118 602Q118 639 112.50 656.50Q107 674 89.50 680.50Q72 687 39 688L39 708Q90 707 148.50 706Q207 705 258.50 705Q310 705 341 705Q387 705 445.50 705.50Q504 706 550 708M384 366Q384 366 384 356Q384 346 384 346L203 346Q203 346 203 356Q203 366 203 366L384 366M413 498Q409 441 409.50 411Q410 381 410 356Q410 331 411 301Q412 271 416 214L393 214Q388 247 380 277.50Q372 308 351.50 327Q331 346 288 346L288 366Q331 366 350.50 388.50Q370 411 377.50 442Q385 473 390 498L413 498M493 844L493 819L125 819L125 844L493 844Z"  horiz-adv-x="617" vert-adv-y="1000"  />

      
      <glyph glyph-name="uni0118" unicode="&#x0118;" d="M550 708Q546 670 544.50 634.50Q543 599 543 580Q543 561 544 544Q545 527 546 516L523 516Q516 580 501.50 617Q487 654 458.50 669.50Q430 685 379 685L310 685Q278 685 261.50 679.50Q245 674 239 657.50Q233 641 233 606L233 102Q233 68 239 51Q245 34 261.50 28.50Q278 23 310 23L375 23Q432 23 465.50 41Q499 59 516.50 100Q534 141 543 212L566 212Q563 183 563 136Q563 116 564.50 78Q566 40 570 0Q519 2 455 2.50Q391 3 341 3Q310 3 258.50 3Q207 3 148.50 2.50Q90 2 39 0L39 20Q73 22 90 28Q107 34 112.50 52Q118 70 118 106L118 602Q118 639 112.50 656.50Q107 674 89.50 680.50Q72 687 39 688L39 708Q90 707 148.50 706Q207 705 258.50 705Q310 705 341 705Q387 705 445.50 705.50Q504 706 550 708M384 366Q384 366 384 356Q384 346 384 346L203 346Q203 346 203 356Q203 366 203 366L384 366M413 498Q409 441 409.50 411Q410 381 410 356Q410 331 411 301Q412 271 416 214L393 214Q388 247 380 277.50Q372 308 351.50 327Q331 346 288 346L288 366Q331 366 350.50 388.50Q370 411 377.50 442Q385 473 390 498L413 498M570 3Q510-14 487.50-42Q465-70 465-95Q465-114 476-126Q487-138 507-138Q526-138 542.50-128.50Q559-119 569-107L584-120Q560-155 530-171.50Q500-188 463-188Q424-188 402-170Q380-152 380-122Q380-82 420-50Q460-18 532 3L570 3Z"  horiz-adv-x="617" vert-adv-y="1000"  />

      
      <glyph glyph-name="uni1EBC" unicode="&#x1EBC;" d="M550 708Q546 670 544.50 634.50Q543 599 543 580Q543 561 544 544Q545 527 546 516L523 516Q516 580 501.50 617Q487 654 458.50 669.50Q430 685 379 685L310 685Q278 685 261.50 679.50Q245 674 239 657.50Q233 641 233 606L233 102Q233 68 239 51Q245 34 261.50 28.50Q278 23 310 23L375 23Q432 23 465.50 41Q499 59 516.50 100Q534 141 543 212L566 212Q563 183 563 136Q563 116 564.50 78Q566 40 570 0Q519 2 455 2.50Q391 3 341 3Q310 3 258.50 3Q207 3 148.50 2.50Q90 2 39 0L39 20Q73 22 90 28Q107 34 112.50 52Q118 70 118 106L118 602Q118 639 112.50 656.50Q107 674 89.50 680.50Q72 687 39 688L39 708Q90 707 148.50 706Q207 705 258.50 705Q310 705 341 705Q387 705 445.50 705.50Q504 706 550 708M384 366Q384 366 384 356Q384 346 384 346L203 346Q203 346 203 356Q203 366 203 366L384 366M413 498Q409 441 409.50 411Q410 381 410 356Q410 331 411 301Q412 271 416 214L393 214Q388 247 380 277.50Q372 308 351.50 327Q331 346 288 346L288 366Q331 366 350.50 388.50Q370 411 377.50 442Q385 473 390 498L413 498M226 909Q256 909 281 898Q306 887 328.50 872Q351 857 374.50 845.50Q398 834 425 834Q446 834 464 846.50Q482 859 494 890L509 886Q502 830 467.50 800.50Q433 771 390 771Q360 771 335 782Q310 793 287 808Q264 823 241 834.50Q218 846 191 846Q169 846 151 833.50Q133 821 122 790L107 794Q115 850 149 879.50Q183 909 226 909Z"  horiz-adv-x="617" vert-adv-y="1000"  />

      
      <glyph glyph-name="uni01B7" unicode="&#x01B7;" d="M552 708L552 688L364 367L362 395Q414 378 457.50 350.50Q501 323 528.50 284Q556 245 556 190Q556 130 522 83.50Q488 37 428.50 11.50Q369-14 291-14Q232-14 190-1Q148 12 128 23Q119 29 110.50 33Q102 37 95 37Q84 37 79.50 25.50Q75 14 72-7L49-7Q51 15 51.50 44.50Q52 74 52.50 122Q53 170 53 243L76 243Q80 179 102.50 125.50Q125 72 168 40Q211 8 277 8Q335 8 371.50 33Q408 58 425.50 98.50Q443 139 443 187Q443 274 394.50 322.50Q346 371 271 388L271 408L435 685L257 685Q199 685 163 667Q127 649 108 607Q89 565 81 492L58 492Q60 507 60.50 528Q61 549 61 567Q61 592 59.50 630Q58 668 54 708Q108 706 175 705.50Q242 705 295 705Q356 705 425 705.50Q494 706 552 708Z"  horiz-adv-x="597" vert-adv-y="1000"  />

      
      <glyph glyph-name="uni01EE" unicode="&#x01EE;" d="M552 708L552 688L364 367L362 395Q414 378 457.50 350.50Q501 323 528.50 284Q556 245 556 190Q556 130 522 83.50Q488 37 428.50 11.50Q369-14 291-14Q232-14 190-1Q148 12 128 23Q119 29 110.50 33Q102 37 95 37Q84 37 79.50 25.50Q75 14 72-7L49-7Q51 15 51.50 44.50Q52 74 52.50 122Q53 170 53 243L76 243Q80 179 102.50 125.50Q125 72 168 40Q211 8 277 8Q335 8 371.50 33Q408 58 425.50 98.50Q443 139 443 187Q443 274 394.50 322.50Q346 371 271 388L271 408L435 685L257 685Q199 685 163 667Q127 649 108 607Q89 565 81 492L58 492Q60 507 60.50 528Q61 549 61 567Q61 592 59.50 630Q58 668 54 708Q108 706 175 705.50Q242 705 295 705Q356 705 425 705.50Q494 706 552 708M491 930L496 916Q431 892 380 854Q329 816 303 776L285 776Q260 816 208.50 854Q157 892 92 916L97 930Q159 918 219 899Q279 880 314 862Q344 880 392.50 899Q441 918 491 930Z"  horiz-adv-x="597" vert-adv-y="1000"  />

      
      <glyph glyph-name="uni46" unicode="&#x46;" d="M550 708Q546 668 544.50 630Q543 592 543 572Q543 549 544 528Q545 507 546 492L523 492Q514 565 498.50 606.50Q483 648 452 666.50Q421 685 363 685L310 685Q278 685 261.50 679.50Q245 674 239 657.50Q233 641 233 606L233 108Q233 71 241 52.50Q249 34 271 28Q293 22 336 21L336 0Q309 2 266 2.50Q223 3 177 3Q137 3 100.50 2.50Q64 2 39 0L39 20Q73 22 90 28Q107 34 112.50 52Q118 70 118 106L118 602Q118 639 112.50 656.50Q107 674 89.50 680.50Q72 687 39 688L39 708Q90 707 148.50 706Q207 705 258.50 705Q310 705 341 705Q387 705 445.50 705.50Q504 706 550 708M397 358Q397 358 397 348Q397 338 397 338L203 338Q203 338 203 348Q203 358 203 358L397 358M418 490Q414 433 414.50 403Q415 373 415 348Q415 323 416 293Q417 263 421 206L398 206Q394 239 386 269.50Q378 300 357 319Q336 338 294 338L294 358Q336 358 356 380.50Q376 403 383.50 434Q391 465 395 490L418 490Z"  horiz-adv-x="577" vert-adv-y="1000"  />

      
      <glyph glyph-name="uni47" unicode="&#x47;" d="M386 722Q452 722 493 702.50Q534 683 568 657Q581 647 588 647Q607 647 613 708L636 708Q634 670 633 616.50Q632 563 632 474L609 474Q602 522 590.50 563Q579 604 551 633Q524 665 480.50 683Q437 701 392 701Q340 701 300 675.50Q260 650 232.50 603Q205 556 190.50 492.50Q176 429 176 353Q176 173 231.50 89.50Q287 6 399 6Q431 6 454.50 15Q478 24 492 33Q509 45 514 56.50Q519 68 519 87L519 184Q519 227 511.50 247.50Q504 268 482 275.50Q460 283 418 284L418 304Q437 303 463 302.50Q489 302 517.50 301.50Q546 301 569 301Q605 301 634.50 302Q664 303 683 304L683 284Q652 282 643 268Q634 254 634 198L634 0L614 0Q613 17 606.50 37Q600 57 587 57Q580 57 572.50 54Q565 51 547 39Q512 15 474 0.50Q436-14 388-14Q226-14 138 80.50Q50 175 50 343Q50 459 93.50 544Q137 629 212.50 675.50Q288 722 386 722Z"  horiz-adv-x="714" vert-adv-y="1000"  />

      
      <glyph glyph-name="uni01F4" unicode="&#x01F4;" d="M386 722Q452 722 493 702.50Q534 683 568 657Q581 647 588 647Q607 647 613 708L636 708Q634 670 633 616.50Q632 563 632 474L609 474Q602 522 590.50 563Q579 604 551 633Q524 665 480.50 683Q437 701 392 701Q340 701 300 675.50Q260 650 232.50 603Q205 556 190.50 492.50Q176 429 176 353Q176 173 231.50 89.50Q287 6 399 6Q431 6 454.50 15Q478 24 492 33Q509 45 514 56.50Q519 68 519 87L519 184Q519 227 511.50 247.50Q504 268 482 275.50Q460 283 418 284L418 304Q437 303 463 302.50Q489 302 517.50 301.50Q546 301 569 301Q605 301 634.50 302Q664 303 683 304L683 284Q652 282 643 268Q634 254 634 198L634 0L614 0Q613 17 606.50 37Q600 57 587 57Q580 57 572.50 54Q565 51 547 39Q512 15 474 0.50Q436-14 388-14Q226-14 138 80.50Q50 175 50 343Q50 459 93.50 544Q137 629 212.50 675.50Q288 722 386 722M470 929Q490 941 509.50 937Q529 933 538 917Q546 902 541 884.50Q536 867 514 853Q493 841 465.50 831.50Q438 822 401 809Q364 796 311 772L304 785Q351 821 379.50 848.50Q408 876 428 896Q448 916 470 929Z"  horiz-adv-x="714" vert-adv-y="1000"  />

      
      <glyph glyph-name="uni011E" unicode="&#x011E;" d="M386 722Q452 722 493 702.50Q534 683 568 657Q581 647 588 647Q607 647 613 708L636 708Q634 670 633 616.50Q632 563 632 474L609 474Q602 522 590.50 563Q579 604 551 633Q524 665 480.50 683Q437 701 392 701Q340 701 300 675.50Q260 650 232.50 603Q205 556 190.50 492.50Q176 429 176 353Q176 173 231.50 89.50Q287 6 399 6Q431 6 454.50 15Q478 24 492 33Q509 45 514 56.50Q519 68 519 87L519 184Q519 227 511.50 247.50Q504 268 482 275.50Q460 283 418 284L418 304Q437 303 463 302.50Q489 302 517.50 301.50Q546 301 569 301Q605 301 634.50 302Q664 303 683 304L683 284Q652 282 643 268Q634 254 634 198L634 0L614 0Q613 17 606.50 37Q600 57 587 57Q580 57 572.50 54Q565 51 547 39Q512 15 474 0.50Q436-14 388-14Q226-14 138 80.50Q50 175 50 343Q50 459 93.50 544Q137 629 212.50 675.50Q288 722 386 722M562 911L574 900Q559 873 531 844.50Q503 816 462 797Q421 778 367 778Q313 778 272 797Q231 816 203 844.50Q175 873 160 900L173 910Q197 889 244.50 868.50Q292 848 367 848Q442 848 490 869Q538 890 562 911Z"  horiz-adv-x="714" vert-adv-y="1000"  />

      
      <glyph glyph-name="uni01E6" unicode="&#x01E6;" d="M386 722Q452 722 493 702.50Q534 683 568 657Q581 647 588 647Q607 647 613 708L636 708Q634 670 633 616.50Q632 563 632 474L609 474Q602 522 590.50 563Q579 604 551 633Q524 665 480.50 683Q437 701 392 701Q340 701 300 675.50Q260 650 232.50 603Q205 556 190.50 492.50Q176 429 176 353Q176 173 231.50 89.50Q287 6 399 6Q431 6 454.50 15Q478 24 492 33Q509 45 514 56.50Q519 68 519 87L519 184Q519 227 511.50 247.50Q504 268 482 275.50Q460 283 418 284L418 304Q437 303 463 302.50Q489 302 517.50 301.50Q546 301 569 301Q605 301 634.50 302Q664 303 683 304L683 284Q652 282 643 268Q634 254 634 198L634 0L614 0Q613 17 606.50 37Q600 57 587 57Q580 57 572.50 54Q565 51 547 39Q512 15 474 0.50Q436-14 388-14Q226-14 138 80.50Q50 175 50 343Q50 459 93.50 544Q137 629 212.50 675.50Q288 722 386 722M563 930L568 916Q503 892 452 854Q401 816 375 776L357 776Q332 816 280.50 854Q229 892 164 916L169 930Q231 918 291 899Q351 880 386 862Q416 880 464.50 899Q513 918 563 930Z"  horiz-adv-x="714" vert-adv-y="1000"  />

      
      <glyph glyph-name="uni011C" unicode="&#x011C;" d="M386 722Q452 722 493 702.50Q534 683 568 657Q581 647 588 647Q607 647 613 708L636 708Q634 670 633 616.50Q632 563 632 474L609 474Q602 522 590.50 563Q579 604 551 633Q524 665 480.50 683Q437 701 392 701Q340 701 300 675.50Q260 650 232.50 603Q205 556 190.50 492.50Q176 429 176 353Q176 173 231.50 89.50Q287 6 399 6Q431 6 454.50 15Q478 24 492 33Q509 45 514 56.50Q519 68 519 87L519 184Q519 227 511.50 247.50Q504 268 482 275.50Q460 283 418 284L418 304Q437 303 463 302.50Q489 302 517.50 301.50Q546 301 569 301Q605 301 634.50 302Q664 303 683 304L683 284Q652 282 643 268Q634 254 634 198L634 0L614 0Q613 17 606.50 37Q600 57 587 57Q580 57 572.50 54Q565 51 547 39Q512 15 474 0.50Q436-14 388-14Q226-14 138 80.50Q50 175 50 343Q50 459 93.50 544Q137 629 212.50 675.50Q288 722 386 722M378 924Q403 884 454.50 846.50Q506 809 571 784L566 770Q504 782 444.50 801Q385 820 349 838Q320 820 271 801Q222 782 172 770L167 784Q232 809 283 846.50Q334 884 360 924L378 924Z"  horiz-adv-x="714" vert-adv-y="1000"  />

      
      <glyph glyph-name="uni0122" unicode="&#x0122;" d="M386 722Q452 722 493 702.50Q534 683 568 657Q581 647 588 647Q607 647 613 708L636 708Q634 670 633 616.50Q632 563 632 474L609 474Q602 522 590.50 563Q579 604 551 633Q524 665 480.50 683Q437 701 392 701Q340 701 300 675.50Q260 650 232.50 603Q205 556 190.50 492.50Q176 429 176 353Q176 173 231.50 89.50Q287 6 399 6Q431 6 454.50 15Q478 24 492 33Q509 45 514 56.50Q519 68 519 87L519 184Q519 227 511.50 247.50Q504 268 482 275.50Q460 283 418 284L418 304Q437 303 463 302.50Q489 302 517.50 301.50Q546 301 569 301Q605 301 634.50 302Q664 303 683 304L683 284Q652 282 643 268Q634 254 634 198L634 0L614 0Q613 17 606.50 37Q600 57 587 57Q580 57 572.50 54Q565 51 547 39Q512 15 474 0.50Q436-14 388-14Q226-14 138 80.50Q50 175 50 343Q50 459 93.50 544Q137 629 212.50 675.50Q288 722 386 722Z"  horiz-adv-x="714" vert-adv-y="1000"  />

      
      <glyph glyph-name="uni0120" unicode="&#x0120;" d="M386 722Q452 722 493 702.50Q534 683 568 657Q581 647 588 647Q607 647 613 708L636 708Q634 670 633 616.50Q632 563 632 474L609 474Q602 522 590.50 563Q579 604 551 633Q524 665 480.50 683Q437 701 392 701Q340 701 300 675.50Q260 650 232.50 603Q205 556 190.50 492.50Q176 429 176 353Q176 173 231.50 89.50Q287 6 399 6Q431 6 454.50 15Q478 24 492 33Q509 45 514 56.50Q519 68 519 87L519 184Q519 227 511.50 247.50Q504 268 482 275.50Q460 283 418 284L418 304Q437 303 463 302.50Q489 302 517.50 301.50Q546 301 569 301Q605 301 634.50 302Q664 303 683 304L683 284Q652 282 643 268Q634 254 634 198L634 0L614 0Q613 17 606.50 37Q600 57 587 57Q580 57 572.50 54Q565 51 547 39Q512 15 474 0.50Q436-14 388-14Q226-14 138 80.50Q50 175 50 343Q50 459 93.50 544Q137 629 212.50 675.50Q288 722 386 722M373 906Q403 906 423.50 886.50Q444 867 444 838Q444 809 423.50 789.50Q403 770 373 770Q342 770 322 789.50Q302 809 302 838Q302 867 322 886.50Q342 906 373 906Z"  horiz-adv-x="714" vert-adv-y="1000"  />

      
      <glyph glyph-name="uni01E4" unicode="&#x01E4;" d="M386 722Q452 722 493 702.50Q534 683 568 657Q581 647 588 647Q607 647 613 708L636 708Q634 670 633 616.50Q632 563 632 474L609 474Q602 522 590.50 563Q579 604 551 633Q524 665 480.50 683Q437 701 392 701Q340 701 300 675.50Q260 650 232.50 603Q205 556 190.50 492.50Q176 429 176 353Q176 173 231.50 89.50Q287 6 399 6Q431 6 454.50 15Q478 24 492 33Q509 45 514 56.50Q519 68 519 87L519 206Q519 249 511.50 269.50Q504 290 482 297.50Q460 305 418 306L418 326Q437 325 463 324.50Q489 324 517.50 323.50Q546 323 569 323Q605 323 634.50 324Q664 325 683 326L683 306Q652 304 643 290Q634 276 634 220L634 0L614 0Q613 17 606.50 37Q600 57 587 57Q580 57 572.50 54Q565 51 547 39Q512 15 474 0.50Q436-14 388-14Q226-14 138 80.50Q50 175 50 343Q50 459 93.50 544Q137 629 212.50 675.50Q288 722 386 722M405 170L405 190L714 190L714 170L405 170Z"  horiz-adv-x="714" vert-adv-y="1000"  />

      
      <glyph glyph-name="uni48" unicode="&#x48;" d="M459 0L459 20Q493 22 510 28Q527 34 532.50 52Q538 70 538 106L538 602Q538 639 532.50 656.50Q527 674 509.50 680.50Q492 687 459 688L459 708Q484 707 521.50 706Q559 705 596 705Q638 705 674 706Q710 707 732 708L732 688Q699 687 682 680.50Q665 674 659 656.50Q653 639 653 602L653 106Q653 70 659 52Q665 34 682 28Q699 22 732 20L732 0Q710 2 674 2.50Q638 3 596 3Q559 3 521.50 2.50Q484 2 459 0M39 0L39 20Q73 22 90 28Q107 34 112.50 52Q118 70 118 106L118 602Q118 639 112.50 656.50Q107 674 89.50 680.50Q72 687 39 688L39 708Q62 707 98.50 706Q135 705 177 705Q215 705 251.50 706Q288 707 312 708L312 688Q279 687 262 680.50Q245 674 239 656.50Q233 639 233 602L233 106Q233 70 239 52Q245 34 262 28Q279 22 312 20L312 0Q288 2 251.50 2.50Q215 3 177 3Q135 3 98.50 2.50Q62 2 39 0M188 346L188 366L583 366L583 346L188 346Z"  horiz-adv-x="771" vert-adv-y="1000"  />

      
      <glyph glyph-name="uni0126" unicode="&#x0126;" d="M459 0L459 20Q493 22 510 28Q527 34 532.50 52Q538 70 538 106L538 602Q538 639 532.50 656.50Q527 674 509.50 680.50Q492 687 459 688L459 708Q484 707 521.50 706Q559 705 596 705Q638 705 674 706Q710 707 732 708L732 688Q699 687 682 680.50Q665 674 659 656.50Q653 639 653 602L653 106Q653 70 659 52Q665 34 682 28Q699 22 732 20L732 0Q710 2 674 2.50Q638 3 596 3Q559 3 521.50 2.50Q484 2 459 0M39 0L39 20Q73 22 90 28Q107 34 112.50 52Q118 70 118 106L118 602Q118 639 112.50 656.50Q107 674 89.50 680.50Q72 687 39 688L39 708Q62 707 98.50 706Q135 705 177 705Q215 705 251.50 706Q288 707 312 708L312 688Q279 687 262 680.50Q245 674 239 656.50Q233 639 233 602L233 106Q233 70 239 52Q245 34 262 28Q279 22 312 20L312 0Q288 2 251.50 2.50Q215 3 177 3Q135 3 98.50 2.50Q62 2 39 0M188 346L188 366L583 366L583 346L188 346M732 533L732 513L39 513L39 533L732 533Z"  horiz-adv-x="771" vert-adv-y="1000"  />

      
      <glyph glyph-name="uni021E" unicode="&#x021E;" d="M459 0L459 20Q493 22 510 28Q527 34 532.50 52Q538 70 538 106L538 602Q538 639 532.50 656.50Q527 674 509.50 680.50Q492 687 459 688L459 708Q484 707 521.50 706Q559 705 596 705Q638 705 674 706Q710 707 732 708L732 688Q699 687 682 680.50Q665 674 659 656.50Q653 639 653 602L653 106Q653 70 659 52Q665 34 682 28Q699 22 732 20L732 0Q710 2 674 2.50Q638 3 596 3Q559 3 521.50 2.50Q484 2 459 0M39 0L39 20Q73 22 90 28Q107 34 112.50 52Q118 70 118 106L118 602Q118 639 112.50 656.50Q107 674 89.50 680.50Q72 687 39 688L39 708Q62 707 98.50 706Q135 705 177 705Q215 705 251.50 706Q288 707 312 708L312 688Q279 687 262 680.50Q245 674 239 656.50Q233 639 233 602L233 106Q233 70 239 52Q245 34 262 28Q279 22 312 20L312 0Q288 2 251.50 2.50Q215 3 177 3Q135 3 98.50 2.50Q62 2 39 0M188 346L188 366L583 366L583 346L188 346M582 930L587 916Q522 892 471 854Q420 816 394 776L376 776Q351 816 299.50 854Q248 892 183 916L188 930Q250 918 310 899Q370 880 405 862Q435 880 483.50 899Q532 918 582 930Z"  horiz-adv-x="771" vert-adv-y="1000"  />

      
      <glyph glyph-name="uni0124" unicode="&#x0124;" d="M459 0L459 20Q493 22 510 28Q527 34 532.50 52Q538 70 538 106L538 602Q538 639 532.50 656.50Q527 674 509.50 680.50Q492 687 459 688L459 708Q484 707 521.50 706Q559 705 596 705Q638 705 674 706Q710 707 732 708L732 688Q699 687 682 680.50Q665 674 659 656.50Q653 639 653 602L653 106Q653 70 659 52Q665 34 682 28Q699 22 732 20L732 0Q710 2 674 2.50Q638 3 596 3Q559 3 521.50 2.50Q484 2 459 0M39 0L39 20Q73 22 90 28Q107 34 112.50 52Q118 70 118 106L118 602Q118 639 112.50 656.50Q107 674 89.50 680.50Q72 687 39 688L39 708Q62 707 98.50 706Q135 705 177 705Q215 705 251.50 706Q288 707 312 708L312 688Q279 687 262 680.50Q245 674 239 656.50Q233 639 233 602L233 106Q233 70 239 52Q245 34 262 28Q279 22 312 20L312 0Q288 2 251.50 2.50Q215 3 177 3Q135 3 98.50 2.50Q62 2 39 0M188 346L188 366L583 366L583 346L188 346M397 924Q422 884 473.50 846.50Q525 809 590 784L585 770Q523 782 463.50 801Q404 820 368 838Q339 820 290 801Q241 782 191 770L186 784Q251 809 302 846.50Q353 884 379 924L397 924Z"  horiz-adv-x="771" vert-adv-y="1000"  />

      
      <glyph glyph-name="uni49" unicode="&#x49;" d="M312 708L312 688Q279 687 262 680.50Q245 674 239 656.50Q233 639 233 602L233 106Q233 70 239 52Q245 34 262 28Q279 22 312 20L312 0Q288 2 251.50 2.50Q215 3 177 3Q135 3 98.50 2.50Q62 2 39 0L39 20Q73 22 90 28Q107 34 112.50 52Q118 70 118 106L118 602Q118 639 112.50 656.50Q107 674 89.50 680.50Q72 687 39 688L39 708Q62 707 98.50 706Q135 705 177 705Q215 705 251.50 706Q288 707 312 708Z"  horiz-adv-x="351" vert-adv-y="1000"  />

      
      <glyph glyph-name="uni0132" unicode="&#x0132;" d="M312 708L312 688Q279 687 262 680.50Q245 674 239 656.50Q233 639 233 602L233 106Q233 70 239 52Q245 34 262 28Q279 22 312 20L312 0Q288 2 251.50 2.50Q215 3 177 3Q135 3 98.50 2.50Q62 2 39 0L39 20Q73 22 90 28Q107 34 112.50 52Q118 70 118 106L118 602Q118 639 112.50 656.50Q107 674 89.50 680.50Q72 687 39 688L39 708Q62 707 98.50 706Q135 705 177 705Q215 705 251.50 706Q288 707 312 708M317-188L317-169Q360-167 390-146.50Q420-126 435-78Q450-30 450 53L450 602Q450 639 444.50 656.50Q439 674 422 680.50Q405 687 371 688L371 708Q394 707 430 706Q466 705 506 705Q545 705 582.50 706Q620 707 644 708L644 688Q611 687 594 680.50Q577 674 571 656.50Q565 639 565 602L565 236Q565 195 564.50 147Q564 99 560.50 54Q557 9 548-25Q530-95 471.50-141.50Q413-188 317-188Z"  horiz-adv-x="677" vert-adv-y="1000"  />

      
      <glyph glyph-name="unicd" unicode="&#xcd;" d="M312 708L312 688Q279 687 262 680.50Q245 674 239 656.50Q233 639 233 602L233 106Q233 70 239 52Q245 34 262 28Q279 22 312 20L312 0Q288 2 251.50 2.50Q215 3 177 3Q135 3 98.50 2.50Q62 2 39 0L39 20Q73 22 90 28Q107 34 112.50 52Q118 70 118 106L118 602Q118 639 112.50 656.50Q107 674 89.50 680.50Q72 687 39 688L39 708Q62 707 98.50 706Q135 705 177 705Q215 705 251.50 706Q288 707 312 708M278 929Q298 941 317.50 937Q337 933 346 917Q354 902 349 884.50Q344 867 322 853Q301 841 273.50 831.50Q246 822 209 809Q172 796 119 772L112 785Q159 821 187.50 848.50Q216 876 236 896Q256 916 278 929Z"  horiz-adv-x="351" vert-adv-y="1000"  />

      
      <glyph glyph-name="uni012C" unicode="&#x012C;" d="M312 708L312 688Q279 687 262 680.50Q245 674 239 656.50Q233 639 233 602L233 106Q233 70 239 52Q245 34 262 28Q279 22 312 20L312 0Q288 2 251.50 2.50Q215 3 177 3Q135 3 98.50 2.50Q62 2 39 0L39 20Q73 22 90 28Q107 34 112.50 52Q118 70 118 106L118 602Q118 639 112.50 656.50Q107 674 89.50 680.50Q72 687 39 688L39 708Q62 707 98.50 706Q135 705 177 705Q215 705 251.50 706Q288 707 312 708M370 911L382 900Q367 873 339 844.50Q311 816 270 797Q229 778 175 778Q121 778 80 797Q39 816 11 844.50Q-17 873-32 900L-19 910Q5 889 52.50 868.50Q100 848 175 848Q250 848 298 869Q346 890 370 911Z"  horiz-adv-x="351" vert-adv-y="1000"  />

      
      <glyph glyph-name="unice" unicode="&#xce;" d="M312 708L312 688Q279 687 262 680.50Q245 674 239 656.50Q233 639 233 602L233 106Q233 70 239 52Q245 34 262 28Q279 22 312 20L312 0Q288 2 251.50 2.50Q215 3 177 3Q135 3 98.50 2.50Q62 2 39 0L39 20Q73 22 90 28Q107 34 112.50 52Q118 70 118 106L118 602Q118 639 112.50 656.50Q107 674 89.50 680.50Q72 687 39 688L39 708Q62 707 98.50 706Q135 705 177 705Q215 705 251.50 706Q288 707 312 708M186 924Q211 884 262.50 846.50Q314 809 379 784L374 770Q312 782 252.50 801Q193 820 157 838Q128 820 79 801Q30 782-20 770L-25 784Q40 809 91 846.50Q142 884 168 924L186 924Z"  horiz-adv-x="351" vert-adv-y="1000"  />

      
      <glyph glyph-name="unicf" unicode="&#xcf;" d="M312 708L312 688Q279 687 262 680.50Q245 674 239 656.50Q233 639 233 602L233 106Q233 70 239 52Q245 34 262 28Q279 22 312 20L312 0Q288 2 251.50 2.50Q215 3 177 3Q135 3 98.50 2.50Q62 2 39 0L39 20Q73 22 90 28Q107 34 112.50 52Q118 70 118 106L118 602Q118 639 112.50 656.50Q107 674 89.50 680.50Q72 687 39 688L39 708Q62 707 98.50 706Q135 705 177 705Q215 705 251.50 706Q288 707 312 708M288 898Q313 898 332 878.50Q351 859 351 834Q351 807 332 788.50Q313 770 288 770Q261 770 242.50 788.50Q224 807 224 834Q224 859 242.50 878.50Q261 898 288 898M66 898Q92 898 111 878.50Q130 859 130 834Q130 807 111 788.50Q92 770 66 770Q40 770 21.50 788.50Q3 807 3 834Q3 859 21.50 878.50Q40 898 66 898Z"  horiz-adv-x="351" vert-adv-y="1000"  />

      
      <glyph glyph-name="uni0130" unicode="&#x0130;" d="M312 708L312 688Q279 687 262 680.50Q245 674 239 656.50Q233 639 233 602L233 106Q233 70 239 52Q245 34 262 28Q279 22 312 20L312 0Q288 2 251.50 2.50Q215 3 177 3Q135 3 98.50 2.50Q62 2 39 0L39 20Q73 22 90 28Q107 34 112.50 52Q118 70 118 106L118 602Q118 639 112.50 656.50Q107 674 89.50 680.50Q72 687 39 688L39 708Q62 707 98.50 706Q135 705 177 705Q215 705 251.50 706Q288 707 312 708M177 961Q208 961 229 941.50Q250 922 250 893Q250 864 229 844.50Q208 825 177 825Q146 825 125 844.50Q104 864 104 893Q104 922 125 941.50Q146 961 177 961Z"  horiz-adv-x="351" vert-adv-y="1000"  />

      
      <glyph glyph-name="uni1ECA" unicode="&#x1ECA;" d="M312 708L312 688Q279 687 262 680.50Q245 674 239 656.50Q233 639 233 602L233 106Q233 70 239 52Q245 34 262 28Q279 22 312 20L312 0Q288 2 251.50 2.50Q215 3 177 3Q135 3 98.50 2.50Q62 2 39 0L39 20Q73 22 90 28Q107 34 112.50 52Q118 70 118 106L118 602Q118 639 112.50 656.50Q107 674 89.50 680.50Q72 687 39 688L39 708Q62 707 98.50 706Q135 705 177 705Q215 705 251.50 706Q288 707 312 708M177-183Q150-183 131.50-167Q113-151 113-124Q113-98 130-81Q147-64 177-64Q207-64 224-81.50Q241-99 241-124Q241-151 222.50-167Q204-183 177-183Z"  horiz-adv-x="351" vert-adv-y="1000"  />

      
      <glyph glyph-name="unicc" unicode="&#xcc;" d="M312 708L312 688Q279 687 262 680.50Q245 674 239 656.50Q233 639 233 602L233 106Q233 70 239 52Q245 34 262 28Q279 22 312 20L312 0Q288 2 251.50 2.50Q215 3 177 3Q135 3 98.50 2.50Q62 2 39 0L39 20Q73 22 90 28Q107 34 112.50 52Q118 70 118 106L118 602Q118 639 112.50 656.50Q107 674 89.50 680.50Q72 687 39 688L39 708Q62 707 98.50 706Q135 705 177 705Q215 705 251.50 706Q288 707 312 708M78 929Q100 916 120 896Q140 876 169 848.50Q198 821 244 785L237 772Q185 796 147 809Q109 822 82.50 831.50Q56 841 34 853Q12 867 7 884.50Q2 902 10 917Q20 933 39 937Q58 941 78 929Z"  horiz-adv-x="351" vert-adv-y="1000"  />

      
      <glyph glyph-name="uni1EC8" unicode="&#x1EC8;" d="M312 708L312 688Q279 687 262 680.50Q245 674 239 656.50Q233 639 233 602L233 106Q233 70 239 52Q245 34 262 28Q279 22 312 20L312 0Q288 2 251.50 2.50Q215 3 177 3Q135 3 98.50 2.50Q62 2 39 0L39 20Q73 22 90 28Q107 34 112.50 52Q118 70 118 106L118 602Q118 639 112.50 656.50Q107 674 89.50 680.50Q72 687 39 688L39 708Q62 707 98.50 706Q135 705 177 705Q215 705 251.50 706Q288 707 312 708M165 765L165 820Q201 834 216 853.50Q231 873 231 896Q231 925 210 940Q189 955 159 955Q146 955 132.50 951.50Q119 948 112 940Q147 931 147 895Q147 873 133.50 860.50Q120 848 99 848Q79 848 66 860.50Q53 873 53 894Q53 914 65 929Q77 944 92 954Q108 963 128.50 969Q149 975 181 975Q212 975 241 967.50Q270 960 289 944Q308 928 308 901Q308 868 274 844.50Q240 821 185 811L185 765L165 765Z"  horiz-adv-x="351" vert-adv-y="1000"  />

      
      <glyph glyph-name="uni012A" unicode="&#x012A;" d="M312 708L312 688Q279 687 262 680.50Q245 674 239 656.50Q233 639 233 602L233 106Q233 70 239 52Q245 34 262 28Q279 22 312 20L312 0Q288 2 251.50 2.50Q215 3 177 3Q135 3 98.50 2.50Q62 2 39 0L39 20Q73 22 90 28Q107 34 112.50 52Q118 70 118 106L118 602Q118 639 112.50 656.50Q107 674 89.50 680.50Q72 687 39 688L39 708Q62 707 98.50 706Q135 705 177 705Q215 705 251.50 706Q288 707 312 708M361 844L361 819L-7 819L-7 844L361 844Z"  horiz-adv-x="351" vert-adv-y="1000"  />

      
      <glyph glyph-name="uni012E" unicode="&#x012E;" d="M312 708L312 688Q279 687 262 680.50Q245 674 239 656.50Q233 639 233 602L233 106Q233 70 239 52Q245 34 262 28Q279 22 312 20L312 0Q288 2 251.50 2.50Q215 3 177 3Q135 3 98.50 2.50Q62 2 39 0L39 20Q73 22 90 28Q107 34 112.50 52Q118 70 118 106L118 602Q118 639 112.50 656.50Q107 674 89.50 680.50Q72 687 39 688L39 708Q62 707 98.50 706Q135 705 177 705Q215 705 251.50 706Q288 707 312 708M309 3Q249-14 226.50-42Q204-70 204-95Q204-114 215-126Q226-138 246-138Q265-138 281.50-128.50Q298-119 308-107L323-120Q299-155 269-171.50Q239-188 202-188Q163-188 141-170Q119-152 119-122Q119-82 159-50Q199-18 271 3L309 3Z"  horiz-adv-x="351" vert-adv-y="1000"  />

      
      <glyph glyph-name="uni0128" unicode="&#x0128;" d="M312 708L312 688Q279 687 262 680.50Q245 674 239 656.50Q233 639 233 602L233 106Q233 70 239 52Q245 34 262 28Q279 22 312 20L312 0Q288 2 251.50 2.50Q215 3 177 3Q135 3 98.50 2.50Q62 2 39 0L39 20Q73 22 90 28Q107 34 112.50 52Q118 70 118 106L118 602Q118 639 112.50 656.50Q107 674 89.50 680.50Q72 687 39 688L39 708Q62 707 98.50 706Q135 705 177 705Q215 705 251.50 706Q288 707 312 708M94 909Q124 909 149 898Q174 887 196.50 872Q219 857 242.50 845.50Q266 834 293 834Q314 834 332 846.50Q350 859 362 890L377 886Q370 830 335.50 800.50Q301 771 258 771Q228 771 203 782Q178 793 155 808Q132 823 109 834.50Q86 846 59 846Q37 846 19 833.50Q1 821-10 790L-25 794Q-17 850 17 879.50Q51 909 94 909Z"  horiz-adv-x="351" vert-adv-y="1000"  />

      
      <glyph glyph-name="uni4a" unicode="&#x4a;" d="M-21-188L-21-169Q22-167 52-146.50Q82-126 97-78Q112-30 112 53L112 602Q112 639 106.50 656.50Q101 674 84 680.50Q67 687 33 688L33 708Q56 707 92 706Q128 705 168 705Q207 705 244.50 706Q282 707 306 708L306 688Q273 687 256 680.50Q239 674 233 656.50Q227 639 227 602L227 236Q227 195 226.50 147Q226 99 222.50 54Q219 9 210-25Q192-95 133.50-141.50Q75-188-21-188Z"  horiz-adv-x="339" vert-adv-y="1000"  />

      
      <glyph glyph-name="uni0134" unicode="&#x0134;" d="M-21-188L-21-169Q22-167 52-146.50Q82-126 97-78Q112-30 112 53L112 602Q112 639 106.50 656.50Q101 674 84 680.50Q67 687 33 688L33 708Q56 707 92 706Q128 705 168 705Q207 705 244.50 706Q282 707 306 708L306 688Q273 687 256 680.50Q239 674 233 656.50Q227 639 227 602L227 236Q227 195 226.50 147Q226 99 222.50 54Q219 9 210-25Q192-95 133.50-141.50Q75-188-21-188M178 924Q203 884 254.50 846.50Q306 809 371 784L366 770Q304 782 244.50 801Q185 820 149 838Q120 820 71 801Q22 782-28 770L-33 784Q32 809 83 846.50Q134 884 160 924L178 924Z"  horiz-adv-x="339" vert-adv-y="1000"  />

      
      <glyph glyph-name="uni4b" unicode="&#x4b;" d="M640 708L640 688Q608 683 576.50 665.50Q545 648 513 608L321 368L355 429L595 81Q611 57 629.50 43Q648 29 677 20L677 0Q650 2 612 2.50Q574 3 545 3Q527 3 500.50 2.50Q474 2 434 0L434 20Q471 22 479.50 32Q488 42 472 65L327 290Q309 318 295 332.50Q281 347 266 351.50Q251 356 229 357L229 378Q271 379 301.50 397Q332 415 359 446L442 551Q477 594 487 624.50Q497 655 482 671Q467 687 426 688L426 708Q457 707 488.50 706Q520 705 552 705Q608 705 640 708M312 708L312 688Q279 687 262 680.50Q245 674 239 656.50Q233 639 233 602L233 106Q233 70 239 52Q245 34 262 28Q279 22 312 20L312 0Q288 2 251.50 2.50Q215 3 177 3Q135 3 98.50 2.50Q62 2 39 0L39 20Q73 22 90 28Q107 34 112.50 52Q118 70 118 106L118 602Q118 639 112.50 656.50Q107 674 89.50 680.50Q72 687 39 688L39 708Q62 707 98.50 706Q135 705 177 705Q215 705 251.50 706Q288 707 312 708Z"  horiz-adv-x="675" vert-adv-y="1000"  />

      
      <glyph glyph-name="uni01E8" unicode="&#x01E8;" d="M640 708L640 688Q608 683 576.50 665.50Q545 648 513 608L321 368L355 429L595 81Q611 57 629.50 43Q648 29 677 20L677 0Q650 2 612 2.50Q574 3 545 3Q527 3 500.50 2.50Q474 2 434 0L434 20Q471 22 479.50 32Q488 42 472 65L327 290Q309 318 295 332.50Q281 347 266 351.50Q251 356 229 357L229 378Q271 379 301.50 397Q332 415 359 446L442 551Q477 594 487 624.50Q497 655 482 671Q467 687 426 688L426 708Q457 707 488.50 706Q520 705 552 705Q608 705 640 708M312 708L312 688Q279 687 262 680.50Q245 674 239 656.50Q233 639 233 602L233 106Q233 70 239 52Q245 34 262 28Q279 22 312 20L312 0Q288 2 251.50 2.50Q215 3 177 3Q135 3 98.50 2.50Q62 2 39 0L39 20Q73 22 90 28Q107 34 112.50 52Q118 70 118 106L118 602Q118 639 112.50 656.50Q107 674 89.50 680.50Q72 687 39 688L39 708Q62 707 98.50 706Q135 705 177 705Q215 705 251.50 706Q288 707 312 708M556 930L561 916Q496 892 445 854Q394 816 368 776L350 776Q325 816 273.50 854Q222 892 157 916L162 930Q224 918 284 899Q344 880 379 862Q409 880 457.50 899Q506 918 556 930Z"  horiz-adv-x="675" vert-adv-y="1000"  />

      
      <glyph glyph-name="uni0136" unicode="&#x0136;" d="M640 708L640 688Q608 683 576.50 665.50Q545 648 513 608L321 368L355 429L595 81Q611 57 629.50 43Q648 29 677 20L677 0Q650 2 612 2.50Q574 3 545 3Q527 3 500.50 2.50Q474 2 434 0L434 20Q471 22 479.50 32Q488 42 472 65L327 290Q309 318 295 332.50Q281 347 266 351.50Q251 356 229 357L229 378Q271 379 301.50 397Q332 415 359 446L442 551Q477 594 487 624.50Q497 655 482 671Q467 687 426 688L426 708Q457 707 488.50 706Q520 705 552 705Q608 705 640 708M312 708L312 688Q279 687 262 680.50Q245 674 239 656.50Q233 639 233 602L233 106Q233 70 239 52Q245 34 262 28Q279 22 312 20L312 0Q288 2 251.50 2.50Q215 3 177 3Q135 3 98.50 2.50Q62 2 39 0L39 20Q73 22 90 28Q107 34 112.50 52Q118 70 118 106L118 602Q118 639 112.50 656.50Q107 674 89.50 680.50Q72 687 39 688L39 708Q62 707 98.50 706Q135 705 177 705Q215 705 251.50 706Q288 707 312 708Z"  horiz-adv-x="675" vert-adv-y="1000"  />

      
      <glyph glyph-name="uni4c" unicode="&#x4c;" d="M314 708L314 688Q280 687 262.50 680.50Q245 674 239 656.50Q233 639 233 602L233 102Q233 68 238.50 51Q244 34 260.50 28.50Q277 23 308 23L373 23Q431 23 465 44.50Q499 66 517 110Q535 154 543 222L566 222Q563 190 563 138Q563 118 564.50 79.50Q566 41 570 0Q519 2 455 2.50Q391 3 341 3Q310 3 258.50 3Q207 3 148.50 2.50Q90 2 39 0L39 20Q73 22 90 28Q107 34 112.50 52Q118 70 118 106L118 602Q118 639 112.50 656.50Q107 674 89.50 680.50Q72 687 39 688L39 708Q62 707 98.50 706Q135 705 177 705Q215 705 252.50 706Q290 707 314 708Z"  horiz-adv-x="596" vert-adv-y="1000"  />

      
      <glyph glyph-name="uni0139" unicode="&#x0139;" d="M314 708L314 688Q280 687 262.50 680.50Q245 674 239 656.50Q233 639 233 602L233 102Q233 68 238.50 51Q244 34 260.50 28.50Q277 23 308 23L373 23Q431 23 465 44.50Q499 66 517 110Q535 154 543 222L566 222Q563 190 563 138Q563 118 564.50 79.50Q566 41 570 0Q519 2 455 2.50Q391 3 341 3Q310 3 258.50 3Q207 3 148.50 2.50Q90 2 39 0L39 20Q73 22 90 28Q107 34 112.50 52Q118 70 118 106L118 602Q118 639 112.50 656.50Q107 674 89.50 680.50Q72 687 39 688L39 708Q62 707 98.50 706Q135 705 177 705Q215 705 252.50 706Q290 707 314 708M278 929Q298 941 317.50 937Q337 933 346 917Q354 902 349 884.50Q344 867 322 853Q301 841 273.50 831.50Q246 822 209 809Q172 796 119 772L112 785Q159 821 187.50 848.50Q216 876 236 896Q256 916 278 929Z"  horiz-adv-x="596" vert-adv-y="1000"  />

      
      <glyph glyph-name="uni013D" unicode="&#x013D;" d="M314 708L314 688Q280 687 262.50 680.50Q245 674 239 656.50Q233 639 233 602L233 102Q233 68 238.50 51Q244 34 260.50 28.50Q277 23 308 23L373 23Q431 23 465 44.50Q499 66 517 110Q535 154 543 222L566 222Q563 190 563 138Q563 118 564.50 79.50Q566 41 570 0Q519 2 455 2.50Q391 3 341 3Q310 3 258.50 3Q207 3 148.50 2.50Q90 2 39 0L39 20Q73 22 90 28Q107 34 112.50 52Q118 70 118 106L118 602Q118 639 112.50 656.50Q107 674 89.50 680.50Q72 687 39 688L39 708Q62 707 98.50 706Q135 705 177 705Q215 705 252.50 706Q290 707 314 708M496 714Q498 709 499.50 698Q501 687 501 678Q501 646 474.50 598Q448 550 404 478L390 482Q402 559 406 595.50Q410 632 410 647Q410 667 404.50 677Q399 687 380 687L380 708Q422 704 447.50 706.50Q473 709 496 714Z"  horiz-adv-x="596" vert-adv-y="1000"  />

      
      <glyph glyph-name="uni013B" unicode="&#x013B;" d="M314 708L314 688Q280 687 262.50 680.50Q245 674 239 656.50Q233 639 233 602L233 102Q233 68 238.50 51Q244 34 260.50 28.50Q277 23 308 23L373 23Q431 23 465 44.50Q499 66 517 110Q535 154 543 222L566 222Q563 190 563 138Q563 118 564.50 79.50Q566 41 570 0Q519 2 455 2.50Q391 3 341 3Q310 3 258.50 3Q207 3 148.50 2.50Q90 2 39 0L39 20Q73 22 90 28Q107 34 112.50 52Q118 70 118 106L118 602Q118 639 112.50 656.50Q107 674 89.50 680.50Q72 687 39 688L39 708Q62 707 98.50 706Q135 705 177 705Q215 705 252.50 706Q290 707 314 708Z"  horiz-adv-x="596" vert-adv-y="1000"  />

      
      <glyph glyph-name="uni013F" unicode="&#x013F;" d="M314 708L314 688Q280 687 262.50 680.50Q245 674 239 656.50Q233 639 233 602L233 102Q233 68 238.50 51Q244 34 260.50 28.50Q277 23 308 23L373 23Q431 23 465 44.50Q499 66 517 110Q535 154 543 222L566 222Q563 190 563 138Q563 118 564.50 79.50Q566 41 570 0Q519 2 455 2.50Q391 3 341 3Q310 3 258.50 3Q207 3 148.50 2.50Q90 2 39 0L39 20Q73 22 90 28Q107 34 112.50 52Q118 70 118 106L118 602Q118 639 112.50 656.50Q107 674 89.50 680.50Q72 687 39 688L39 708Q62 707 98.50 706Q135 705 177 705Q215 705 252.50 706Q290 707 314 708M478 503Q508 503 528.50 483.50Q549 464 549 434Q549 405 528.50 385.50Q508 366 478 366Q448 366 427.50 385.50Q407 405 407 434Q407 464 427.50 483.50Q448 503 478 503Z"  horiz-adv-x="596" vert-adv-y="1000"  />

      
      <glyph glyph-name="uni0141" unicode="&#x0141;" d="M314 708L314 688Q280 687 262.50 680.50Q245 674 239 656.50Q233 639 233 602L233 102Q233 68 238.50 51Q244 34 260.50 28.50Q277 23 308 23L373 23Q431 23 465 44.50Q499 66 517 110Q535 154 543 222L566 222Q563 190 563 138Q563 118 564.50 79.50Q566 41 570 0Q519 2 455 2.50Q391 3 341 3Q310 3 258.50 3Q207 3 148.50 2.50Q90 2 39 0L39 20Q73 22 90 28Q107 34 112.50 52Q118 70 118 106L118 602Q118 639 112.50 656.50Q107 674 89.50 680.50Q72 687 39 688L39 708Q62 707 98.50 706Q135 705 177 705Q215 705 252.50 706Q290 707 314 708M457 473L457 450L173 285L173 308L457 473M173 318L173 295L23 208L23 231L173 318Z"  horiz-adv-x="596" vert-adv-y="1000"  />

      
      <glyph glyph-name="uni4d" unicode="&#x4d;" d="M851 708L851 688Q817 687 800 680.50Q783 674 777.50 656.50Q772 639 772 602L772 106Q772 70 777.50 52Q783 34 800 28Q817 22 851 20L851 0Q826 2 789 2.50Q752 3 714 3Q672 3 635 2.50Q598 2 576 0L576 20Q610 22 627.50 28Q645 34 651 52Q657 70 657 106L657 653L662 651L416-4L400-4L142 644L142 132Q142 90 148 66.50Q154 43 174 33Q194 23 235 20L235 0Q216 2 186.50 2.50Q157 3 131 3Q106 3 81 2.50Q56 2 40 0L40 20Q73 23 90 32.50Q107 42 113 65Q119 88 119 128L119 602Q119 639 113 656.50Q107 674 90 680.50Q73 687 40 688L40 708Q56 707 81 706Q106 705 131 705Q160 705 189.50 706Q219 707 240 708L461 140L442 127L659 705Q672 705 686 705Q700 705 714 705Q752 705 789 706Q826 707 851 708Z"  horiz-adv-x="890" vert-adv-y="1000"  />

      
      <glyph glyph-name="uni4e" unicode="&#x4e;" d="M678 708L678 688Q644 686 627 676Q610 666 604.50 643.50Q599 621 599 580L599-4Q591-4 583-4Q575-4 566-4L142 612L142 132Q142 90 148 66.50Q154 43 174 33Q194 23 235 20L235 0Q216 2 186.50 2.50Q157 3 131 3Q106 3 81 2.50Q56 2 40 0L40 20Q73 23 90 32.50Q107 42 113 65Q119 88 119 128L119 602Q119 639 113 656.50Q107 674 90 680.50Q73 687 40 688L40 708Q56 707 81 706Q106 705 131 705Q153 705 174 706Q195 707 211 708L576 186L576 576Q576 619 569.50 642Q563 665 543 675.50Q523 686 483 688L483 708Q501 707 531 706Q561 705 587 705Q612 705 637 706Q662 707 678 708Z"  horiz-adv-x="711" vert-adv-y="1000"  />

      
      <glyph glyph-name="uni0143" unicode="&#x0143;" d="M678 708L678 688Q644 686 627 676Q610 666 604.50 643.50Q599 621 599 580L599-4Q591-4 583-4Q575-4 566-4L142 612L142 132Q142 90 148 66.50Q154 43 174 33Q194 23 235 20L235 0Q216 2 186.50 2.50Q157 3 131 3Q106 3 81 2.50Q56 2 40 0L40 20Q73 23 90 32.50Q107 42 113 65Q119 88 119 128L119 602Q119 639 113 656.50Q107 674 90 680.50Q73 687 40 688L40 708Q56 707 81 706Q106 705 131 705Q153 705 174 706Q195 707 211 708L576 186L576 576Q576 619 569.50 642Q563 665 543 675.50Q523 686 483 688L483 708Q501 707 531 706Q561 705 587 705Q612 705 637 706Q662 707 678 708M477 929Q497 941 516.50 937Q536 933 545 917Q553 902 548 884.50Q543 867 521 853Q500 841 472.50 831.50Q445 822 408 809Q371 796 318 772L311 785Q358 821 386.50 848.50Q415 876 435 896Q455 916 477 929Z"  horiz-adv-x="711" vert-adv-y="1000"  />

      
      <glyph glyph-name="uni0147" unicode="&#x0147;" d="M678 708L678 688Q644 686 627 676Q610 666 604.50 643.50Q599 621 599 580L599-4Q591-4 583-4Q575-4 566-4L142 612L142 132Q142 90 148 66.50Q154 43 174 33Q194 23 235 20L235 0Q216 2 186.50 2.50Q157 3 131 3Q106 3 81 2.50Q56 2 40 0L40 20Q73 23 90 32.50Q107 42 113 65Q119 88 119 128L119 602Q119 639 113 656.50Q107 674 90 680.50Q73 687 40 688L40 708Q56 707 81 706Q106 705 131 705Q153 705 174 706Q195 707 211 708L576 186L576 576Q576 619 569.50 642Q563 665 543 675.50Q523 686 483 688L483 708Q501 707 531 706Q561 705 587 705Q612 705 637 706Q662 707 678 708M570 930L575 916Q510 892 459 854Q408 816 382 776L364 776Q339 816 287.50 854Q236 892 171 916L176 930Q238 918 298 899Q358 880 393 862Q423 880 471.50 899Q520 918 570 930Z"  horiz-adv-x="711" vert-adv-y="1000"  />

      
      <glyph glyph-name="uni0145" unicode="&#x0145;" d="M678 708L678 688Q644 686 627 676Q610 666 604.50 643.50Q599 621 599 580L599-4Q591-4 583-4Q575-4 566-4L142 612L142 132Q142 90 148 66.50Q154 43 174 33Q194 23 235 20L235 0Q216 2 186.50 2.50Q157 3 131 3Q106 3 81 2.50Q56 2 40 0L40 20Q73 23 90 32.50Q107 42 113 65Q119 88 119 128L119 602Q119 639 113 656.50Q107 674 90 680.50Q73 687 40 688L40 708Q56 707 81 706Q106 705 131 705Q153 705 174 706Q195 707 211 708L576 186L576 576Q576 619 569.50 642Q563 665 543 675.50Q523 686 483 688L483 708Q501 707 531 706Q561 705 587 705Q612 705 637 706Q662 707 678 708Z"  horiz-adv-x="711" vert-adv-y="1000"  />

      
      <glyph glyph-name="uni014A" unicode="&#x014A;" d="M677 708L677 688Q644 687 627 680.50Q610 674 604 656.50Q598 639 598 602L598 272L583-4Q579-4 574.50-4Q570-4 566-4L141 612L141 106Q141 70 147 52Q153 34 170.50 28Q188 22 222 20L222 0Q204 2 180 2.50Q156 3 130 3Q106 3 81 2.50Q56 2 39 0L39 20Q72 22 89.50 28Q107 34 112.50 52Q118 70 118 106L118 602Q118 639 112.50 656.50Q107 674 89.50 680.50Q72 687 39 688L39 708Q56 707 81 706Q106 705 130 705Q155 705 179 706Q203 707 222 708L575 202L575 602Q575 639 569 656.50Q563 674 545.50 680.50Q528 687 494 688L494 708Q512 707 536.50 706Q561 705 586 705Q612 705 636.50 706Q661 707 677 708M598 445L598 82Q598-29 579.50-87Q561-145 529-166.50Q497-188 455-188Q416-188 386.50-172.50Q357-157 357-120Q357-94 373.50-79Q390-64 414-64Q438-64 455-78.50Q472-93 472-116Q472-131 463-146Q454-161 439-169Q444-170 450-170Q456-170 461-170Q522-170 548.50-113Q575-56 575 47L575 445Q575 445 586.50 445Q598 445 598 445Z"  horiz-adv-x="710" vert-adv-y="1000"  />

      
      <glyph glyph-name="unid1" unicode="&#xd1;" d="M678 708L678 688Q644 686 627 676Q610 666 604.50 643.50Q599 621 599 580L599-4Q591-4 583-4Q575-4 566-4L142 612L142 132Q142 90 148 66.50Q154 43 174 33Q194 23 235 20L235 0Q216 2 186.50 2.50Q157 3 131 3Q106 3 81 2.50Q56 2 40 0L40 20Q73 23 90 32.50Q107 42 113 65Q119 88 119 128L119 602Q119 639 113 656.50Q107 674 90 680.50Q73 687 40 688L40 708Q56 707 81 706Q106 705 131 705Q153 705 174 706Q195 707 211 708L576 186L576 576Q576 619 569.50 642Q563 665 543 675.50Q523 686 483 688L483 708Q501 707 531 706Q561 705 587 705Q612 705 637 706Q662 707 678 708M293 909Q323 909 348 898Q373 887 395.50 872Q418 857 441.50 845.50Q465 834 492 834Q513 834 531 846.50Q549 859 561 890L576 886Q569 830 534.50 800.50Q500 771 457 771Q427 771 402 782Q377 793 354 808Q331 823 308 834.50Q285 846 258 846Q236 846 218 833.50Q200 821 189 790L174 794Q182 850 216 879.50Q250 909 293 909Z"  horiz-adv-x="711" vert-adv-y="1000"  />

      
      <glyph glyph-name="uni4f" unicode="&#x4f;" d="M380 722Q478 722 552.50 679Q627 636 668 555.50Q709 475 709 360Q709 248 667 164Q625 80 550 33Q475-14 379-14Q280-14 206 29Q132 72 91 153Q50 234 50 348Q50 460 92.50 544Q135 628 209 675Q283 722 380 722M376 704Q314 704 268 659Q222 614 197 535Q172 456 172 352Q172 246 200 167.50Q228 89 276 46.50Q324 4 383 4Q445 4 490.50 49Q536 94 561.50 173.50Q587 253 587 356Q587 463 558.50 541Q530 619 482.50 661.50Q435 704 376 704Z"  horiz-adv-x="758" vert-adv-y="1000"  />

      
      <glyph glyph-name="unid3" unicode="&#xd3;" d="M380 722Q478 722 552.50 679Q627 636 668 555.50Q709 475 709 360Q709 248 667 164Q625 80 550 33Q475-14 379-14Q280-14 206 29Q132 72 91 153Q50 234 50 348Q50 460 92.50 544Q135 628 209 675Q283 722 380 722M376 704Q314 704 268 659Q222 614 197 535Q172 456 172 352Q172 246 200 167.50Q228 89 276 46.50Q324 4 383 4Q445 4 490.50 49Q536 94 561.50 173.50Q587 253 587 356Q587 463 558.50 541Q530 619 482.50 661.50Q435 704 376 704M479 929Q499 941 518.50 937Q538 933 547 917Q555 902 550 884.50Q545 867 523 853Q502 841 474.50 831.50Q447 822 410 809Q373 796 320 772L313 785Q360 821 388.50 848.50Q417 876 437 896Q457 916 479 929Z"  horiz-adv-x="758" vert-adv-y="1000"  />

      
      <glyph glyph-name="uni014E" unicode="&#x014E;" d="M380 722Q478 722 552.50 679Q627 636 668 555.50Q709 475 709 360Q709 248 667 164Q625 80 550 33Q475-14 379-14Q280-14 206 29Q132 72 91 153Q50 234 50 348Q50 460 92.50 544Q135 628 209 675Q283 722 380 722M376 704Q314 704 268 659Q222 614 197 535Q172 456 172 352Q172 246 200 167.50Q228 89 276 46.50Q324 4 383 4Q445 4 490.50 49Q536 94 561.50 173.50Q587 253 587 356Q587 463 558.50 541Q530 619 482.50 661.50Q435 704 376 704M571 911L583 900Q568 873 540 844.50Q512 816 471 797Q430 778 376 778Q322 778 281 797Q240 816 212 844.50Q184 873 169 900L182 910Q206 889 253.50 868.50Q301 848 376 848Q451 848 499 869Q547 890 571 911Z"  horiz-adv-x="758" vert-adv-y="1000"  />

      
      <glyph glyph-name="unid4" unicode="&#xd4;" d="M380 722Q478 722 552.50 679Q627 636 668 555.50Q709 475 709 360Q709 248 667 164Q625 80 550 33Q475-14 379-14Q280-14 206 29Q132 72 91 153Q50 234 50 348Q50 460 92.50 544Q135 628 209 675Q283 722 380 722M376 704Q314 704 268 659Q222 614 197 535Q172 456 172 352Q172 246 200 167.50Q228 89 276 46.50Q324 4 383 4Q445 4 490.50 49Q536 94 561.50 173.50Q587 253 587 356Q587 463 558.50 541Q530 619 482.50 661.50Q435 704 376 704M387 924Q412 884 463.50 846.50Q515 809 580 784L575 770Q513 782 453.50 801Q394 820 358 838Q329 820 280 801Q231 782 181 770L176 784Q241 809 292 846.50Q343 884 369 924L387 924Z"  horiz-adv-x="758" vert-adv-y="1000"  />

      
      <glyph glyph-name="uni1ED0" unicode="&#x1ED0;" d="M380 722Q478 722 552.50 679Q627 636 668 555.50Q709 475 709 360Q709 248 667 164Q625 80 550 33Q475-14 379-14Q280-14 206 29Q132 72 91 153Q50 234 50 348Q50 460 92.50 544Q135 628 209 675Q283 722 380 722M376 704Q314 704 268 659Q222 614 197 535Q172 456 172 352Q172 246 200 167.50Q228 89 276 46.50Q324 4 383 4Q445 4 490.50 49Q536 94 561.50 173.50Q587 253 587 356Q587 463 558.50 541Q530 619 482.50 661.50Q435 704 376 704M387 924Q412 884 463.50 846.50Q515 809 580 784L575 770Q513 782 453.50 801Q394 820 358 838Q329 820 280 801Q231 782 181 770L176 784Q241 809 292 846.50Q343 884 369 924L387 924M479 1149Q499 1161 518.50 1157Q538 1153 547 1137Q555 1122 550 1104.50Q545 1087 523 1073Q502 1061 474.50 1051.50Q447 1042 410 1029Q373 1016 320 992L313 1005Q360 1041 388.50 1068.50Q417 1096 437 1116Q457 1136 479 1149Z"  horiz-adv-x="758" vert-adv-y="1000"  />

      
      <glyph glyph-name="uni1ED8" unicode="&#x1ED8;" d="M380 722Q478 722 552.50 679Q627 636 668 555.50Q709 475 709 360Q709 248 667 164Q625 80 550 33Q475-14 379-14Q280-14 206 29Q132 72 91 153Q50 234 50 348Q50 460 92.50 544Q135 628 209 675Q283 722 380 722M376 704Q314 704 268 659Q222 614 197 535Q172 456 172 352Q172 246 200 167.50Q228 89 276 46.50Q324 4 383 4Q445 4 490.50 49Q536 94 561.50 173.50Q587 253 587 356Q587 463 558.50 541Q530 619 482.50 661.50Q435 704 376 704M387 924Q412 884 463.50 846.50Q515 809 580 784L575 770Q513 782 453.50 801Q394 820 358 838Q329 820 280 801Q231 782 181 770L176 784Q241 809 292 846.50Q343 884 369 924L387 924M380-183Q353-183 334.50-167Q316-151 316-124Q316-98 333-81Q350-64 380-64Q410-64 427-81.50Q444-99 444-124Q444-151 425.50-167Q407-183 380-183Z"  horiz-adv-x="758" vert-adv-y="1000"  />

      
      <glyph glyph-name="uni1ED2" unicode="&#x1ED2;" d="M380 722Q478 722 552.50 679Q627 636 668 555.50Q709 475 709 360Q709 248 667 164Q625 80 550 33Q475-14 379-14Q280-14 206 29Q132 72 91 153Q50 234 50 348Q50 460 92.50 544Q135 628 209 675Q283 722 380 722M376 704Q314 704 268 659Q222 614 197 535Q172 456 172 352Q172 246 200 167.50Q228 89 276 46.50Q324 4 383 4Q445 4 490.50 49Q536 94 561.50 173.50Q587 253 587 356Q587 463 558.50 541Q530 619 482.50 661.50Q435 704 376 704M387 924Q412 884 463.50 846.50Q515 809 580 784L575 770Q513 782 453.50 801Q394 820 358 838Q329 820 280 801Q231 782 181 770L176 784Q241 809 292 846.50Q343 884 369 924L387 924M279 1149Q301 1136 321 1116Q341 1096 370 1068.50Q399 1041 445 1005L438 992Q386 1016 348 1029Q310 1042 283.50 1051.50Q257 1061 235 1073Q213 1087 208 1104.50Q203 1122 211 1137Q221 1153 240 1157Q259 1161 279 1149Z"  horiz-adv-x="758" vert-adv-y="1000"  />

      
      <glyph glyph-name="uni1ED4" unicode="&#x1ED4;" d="M380 722Q478 722 552.50 679Q627 636 668 555.50Q709 475 709 360Q709 248 667 164Q625 80 550 33Q475-14 379-14Q280-14 206 29Q132 72 91 153Q50 234 50 348Q50 460 92.50 544Q135 628 209 675Q283 722 380 722M376 704Q314 704 268 659Q222 614 197 535Q172 456 172 352Q172 246 200 167.50Q228 89 276 46.50Q324 4 383 4Q445 4 490.50 49Q536 94 561.50 173.50Q587 253 587 356Q587 463 558.50 541Q530 619 482.50 661.50Q435 704 376 704M387 924Q412 884 463.50 846.50Q515 809 580 784L575 770Q513 782 453.50 801Q394 820 358 838Q329 820 280 801Q231 782 181 770L176 784Q241 809 292 846.50Q343 884 369 924L387 924M532 917L532 972Q568 986 583 1005.50Q598 1025 598 1048Q598 1077 577 1092Q556 1107 526 1107Q513 1107 499.50 1103.50Q486 1100 479 1092Q514 1083 514 1047Q514 1025 500.50 1012.50Q487 1000 466 1000Q446 1000 433 1012.50Q420 1025 420 1046Q420 1066 432 1081Q444 1096 459 1106Q475 1115 495.50 1121Q516 1127 548 1127Q579 1127 608 1119.50Q637 1112 656 1096Q675 1080 675 1053Q675 1020 641 996.50Q607 973 552 963L552 917L532 917Z"  horiz-adv-x="758" vert-adv-y="1000"  />

      
      <glyph glyph-name="uni1ED6" unicode="&#x1ED6;" d="M380 722Q478 722 552.50 679Q627 636 668 555.50Q709 475 709 360Q709 248 667 164Q625 80 550 33Q475-14 379-14Q280-14 206 29Q132 72 91 153Q50 234 50 348Q50 460 92.50 544Q135 628 209 675Q283 722 380 722M376 704Q314 704 268 659Q222 614 197 535Q172 456 172 352Q172 246 200 167.50Q228 89 276 46.50Q324 4 383 4Q445 4 490.50 49Q536 94 561.50 173.50Q587 253 587 356Q587 463 558.50 541Q530 619 482.50 661.50Q435 704 376 704M387 924Q412 884 463.50 846.50Q515 809 580 784L575 770Q513 782 453.50 801Q394 820 358 838Q329 820 280 801Q231 782 181 770L176 784Q241 809 292 846.50Q343 884 369 924L387 924M295 1129Q325 1129 350 1118Q375 1107 397.50 1092Q420 1077 443.50 1065.50Q467 1054 494 1054Q515 1054 533 1066.50Q551 1079 563 1110L578 1106Q571 1050 536.50 1020.50Q502 991 459 991Q429 991 404 1002Q379 1013 356 1028Q333 1043 310 1054.50Q287 1066 260 1066Q238 1066 220 1053.50Q202 1041 191 1010L176 1014Q184 1070 218 1099.50Q252 1129 295 1129Z"  horiz-adv-x="758" vert-adv-y="1000"  />

      
      <glyph glyph-name="unid6" unicode="&#xd6;" d="M380 722Q478 722 552.50 679Q627 636 668 555.50Q709 475 709 360Q709 248 667 164Q625 80 550 33Q475-14 379-14Q280-14 206 29Q132 72 91 153Q50 234 50 348Q50 460 92.50 544Q135 628 209 675Q283 722 380 722M376 704Q314 704 268 659Q222 614 197 535Q172 456 172 352Q172 246 200 167.50Q228 89 276 46.50Q324 4 383 4Q445 4 490.50 49Q536 94 561.50 173.50Q587 253 587 356Q587 463 558.50 541Q530 619 482.50 661.50Q435 704 376 704M489 898Q514 898 533 878.50Q552 859 552 834Q552 807 533 788.50Q514 770 489 770Q462 770 443.50 788.50Q425 807 425 834Q425 859 443.50 878.50Q462 898 489 898M267 898Q293 898 312 878.50Q331 859 331 834Q331 807 312 788.50Q293 770 267 770Q241 770 222.50 788.50Q204 807 204 834Q204 859 222.50 878.50Q241 898 267 898Z"  horiz-adv-x="758" vert-adv-y="1000"  />

      
      <glyph glyph-name="uni1ECC" unicode="&#x1ECC;" d="M380 722Q478 722 552.50 679Q627 636 668 555.50Q709 475 709 360Q709 248 667 164Q625 80 550 33Q475-14 379-14Q280-14 206 29Q132 72 91 153Q50 234 50 348Q50 460 92.50 544Q135 628 209 675Q283 722 380 722M376 704Q314 704 268 659Q222 614 197 535Q172 456 172 352Q172 246 200 167.50Q228 89 276 46.50Q324 4 383 4Q445 4 490.50 49Q536 94 561.50 173.50Q587 253 587 356Q587 463 558.50 541Q530 619 482.50 661.50Q435 704 376 704M380-183Q353-183 334.50-167Q316-151 316-124Q316-98 333-81Q350-64 380-64Q410-64 427-81.50Q444-99 444-124Q444-151 425.50-167Q407-183 380-183Z"  horiz-adv-x="758" vert-adv-y="1000"  />

      
      <glyph glyph-name="unid2" unicode="&#xd2;" d="M380 722Q478 722 552.50 679Q627 636 668 555.50Q709 475 709 360Q709 248 667 164Q625 80 550 33Q475-14 379-14Q280-14 206 29Q132 72 91 153Q50 234 50 348Q50 460 92.50 544Q135 628 209 675Q283 722 380 722M376 704Q314 704 268 659Q222 614 197 535Q172 456 172 352Q172 246 200 167.50Q228 89 276 46.50Q324 4 383 4Q445 4 490.50 49Q536 94 561.50 173.50Q587 253 587 356Q587 463 558.50 541Q530 619 482.50 661.50Q435 704 376 704M279 929Q301 916 321 896Q341 876 370 848.50Q399 821 445 785L438 772Q386 796 348 809Q310 822 283.50 831.50Q257 841 235 853Q213 867 208 884.50Q203 902 211 917Q221 933 240 937Q259 941 279 929Z"  horiz-adv-x="758" vert-adv-y="1000"  />

      
      </font>
</defs>
</svg>
